<svg id="Layer_1" data-name="Layer 1" xmlns="http://www.w3.org/2000/svg" xmlns:xlink="http://www.w3.org/1999/xlink" viewBox="0 0 800 800"><defs><style>.cls-1,.cls-29,.cls-32{fill:none;}.cls-2{clip-path:url(#clip-path);}.cls-3{fill:#d1f6ff;}.cls-4,.cls-5,.cls-6{fill:#b0e2ea;}.cls-30,.cls-5{opacity:0.5;}.cls-31,.cls-6{opacity:0.1;}.cls-7{fill:#9b9fa0;}.cls-8{fill:#9e7f61;}.cls-9{fill:#8e8e8e;}.cls-10{fill:#038985;}.cls-11{fill:#39c8bd;}.cls-12{fill:#02aaaa;}.cls-13{fill:#bbbcbc;}.cls-14{fill:#eebe5e;}.cls-15{fill:#d1d3d4;}.cls-16{fill:#d4a954;}.cls-17{fill:#e6e7e8;}.cls-18{fill:#3aa2c7;}.cls-19{fill:#75210e;}.cls-20{fill:#fdd1a2;}.cls-21{fill:#e1b78f;}.cls-22{fill:#7f2617;}.cls-23{fill:#f2f0f3;}.cls-24,.cls-31{fill:#fff;}.cls-25{fill:#30281c;}.cls-26{fill:#ffb47c;}.cls-27{fill:#33334e;}.cls-28{fill:#e6fbfd;}.cls-29{stroke:#1592b0;stroke-linecap:round;stroke-width:2px;}.cls-29,.cls-32{stroke-miterlimit:10;}.cls-30{fill:#23233b;}.cls-32{stroke:#de7f84;stroke-width:0.5px;}.cls-33{fill:#faad18;}.cls-34{fill:#ffc4b3;}.cls-35{fill:#f7ab94;}.cls-36{fill:#1592b0;}.cls-37{fill:#e6e6e6;}.cls-38{fill:#3d372e;}</style><clipPath id="clip-path"><circle class="cls-1" cx="422.23" cy="387.92" r="281.97"/></clipPath></defs><g class="cls-2"><circle class="cls-3" cx="421.22" cy="390.43" r="281.97"/><rect class="cls-4" x="62.52" y="248.04" width="531.58" height="330.96"/><path class="cls-4" d="M583.22,260.23l7.78-8.9a.86.86,0,0,0-1.22-1.21L582,259a.86.86,0,0,0,1.22,1.22Z"/><path class="cls-4" d="M75,259.18a93.55,93.55,0,0,1-7.64-7.12c-.68-.71-1.35-1.43-2-2.16a.86.86,0,1,0-1.22,1.22,91.9,91.9,0,0,0,7.41,7.36c.73.65,1.48,1.29,2.23,1.92A.86.86,0,0,0,75,259.18Z"/><polygon class="cls-4" points="62.52 579 64.65 579 75.91 565.62 62.52 579"/><polygon class="cls-4" points="580.72 565.62 594.11 579 592.77 579 580.72 565.62"/><rect class="cls-4" x="75.91" y="261.42" width="504.81" height="304.19"/><path class="cls-4" d="M85.68,521.36c-1.84-40.28-1.84-178.35,0-218.63a36.21,36.21,0,0,1,34.38-34.51c149.66-7.39,430.6-5.53,446.22-1.66s12.48,209,9.46,271.7c-1,19.67-18.24,21.63-37.93,21.09-138-3.78-279.77,3.33-417.75-3.48A36.2,36.2,0,0,1,85.68,521.36Z"/><path class="cls-4" d="M542.81,557.66c-1.49,0-65.91-1.32-104.14-1.32-28,0-140.28.84-168.33.84-60.39,0-106.65-1-150-3.24a29.77,29.77,0,0,1-20.07-9.33,32.55,32.55,0,0,1-8.85-21c-1.82-41.77-1.82-183,0-224.74a32.53,32.53,0,0,1,8.85-21,29.79,29.79,0,0,1,20.07-9.34c92.28-4.77,220.14-5.28,270.83-5.28,44.53,0,86.78.36,119,1,41.68.85,55.58,4.65,56.69,9.1a138.28,138.28,0,0,1,2.85,17.78c1.45,13.48,2.35,31.69,2.66,54.13.69,47.92,5.75,184.51-1.75,198.18S556.94,557.66,542.81,557.66Z"/><path class="cls-4" d="M171,296.06q49.92-1.59,99.86-2,49.69-.42,99.38.34,28,.42,56.05,1.22c4.07.11,4.06-6.21,0-6.32q-49.93-1.43-99.88-1.66-49.68-.24-99.37.69-28,.53-56,1.42c-4.06.13-4.08,6.45,0,6.32Z"/><path class="cls-4" d="M453.9,323.08h38.25a3.3,3.3,0,0,0,2.24-.92,3.23,3.23,0,0,0,.92-2.23,3.17,3.17,0,0,0-.92-2.24,3.28,3.28,0,0,0-2.24-.92H453.9a3.16,3.16,0,0,0-3.16,3.16,3.22,3.22,0,0,0,.93,2.23,3.27,3.27,0,0,0,2.23.92Z"/><path class="cls-4" d="M316.92,536.73h220.6a3.16,3.16,0,1,0,0-6.31H316.92a3.16,3.16,0,1,0,0,6.31Z"/><path class="cls-4" d="M583.22,260.23l7.78-8.9a.86.86,0,0,0-1.22-1.21L582,259a.86.86,0,0,0,1.22,1.22Z"/><path class="cls-4" d="M75,259.18a93.55,93.55,0,0,1-7.64-7.12c-.68-.71-1.35-1.43-2-2.16a.86.86,0,1,0-1.22,1.22,91.9,91.9,0,0,0,7.41,7.36c.73.65,1.48,1.29,2.23,1.92A.86.86,0,0,0,75,259.18Z"/><polygon class="cls-4" points="580.72 565.8 75.91 565.8 56.9 572.25 600.93 572.25 580.72 565.8"/><rect class="cls-4" x="56.9" y="572.25" width="544.03" height="6.75"/><path class="cls-4" d="M264.75,542.57h-38c-7.18,0-6.75,5-6.75,5v13h51.52v-13S271.93,542.57,264.75,542.57Z"/><rect class="cls-4" x="219.97" y="559.24" width="51.52" height="3.5"/><rect class="cls-4" x="219.97" y="549.65" width="51.52" height="4.99"/><polygon class="cls-4" points="214.09 562.74 194.04 559.62 194.7 556.22 214.59 559.46 214.09 562.74"/><path class="cls-4" d="M210.92,562.24,194,559.62l.66-3.4.86.14s-.85,2.13,2.54,3.19S210.92,562.24,210.92,562.24Z"/><polygon class="cls-4" points="211.78 562.45 191.49 562.74 191.57 559.27 211.72 559.14 211.78 562.45"/><path class="cls-4" d="M208.57,562.5l-17.08.23.08-3.46h.87s-.48,2.25,3,2.73S208.57,562.5,208.57,562.5Z"/><rect class="cls-4" x="282.79" y="543.81" width="27.59" height="18.93"/><polygon class="cls-4" points="292.14 542.57 302.06 542.57 310.43 543.81 282.84 543.81 292.14 542.57"/><path class="cls-4" d="M521.17,655.28c14.67,0,28-1.51,40.72-9.41,10-6.21,6.85-19,4.62-29.29-.88-4.1-2.07-8.12-3-12.21-3.1-14-2.91-28.46-2.7-42.79.12-7.57.3-15.46,3.8-22.19,2.39-4.59,6.17-8.31,8.8-12.77,4.76-8,5.45-17.76,5.62-27.09.17-8.88-.09-18-3.75-26.14-6.09-13.44-20.12-21.15-33.23-27.91-4.42-2.28-8.87-4.58-13.67-5.86-5.43-1.45-11.11-1.56-16.72-1.62-25.63-.27-52,.49-75.58,10.62a24.68,24.68,0,0,0-14.88,13.79c-10.79,21-15.42,48.19-5.47,69.75a102.71,102.71,0,0,1,3,77.78c-2.43,6.56-5.56,12.94-6.75,19.83s-.08,14.66,4.91,19.57c4.33,4.25,10.67,5.57,16.65,6.61,10,1.74,20.28,3.22,30.23,1.23s19.63-8.1,23.27-17.57c1.71,6.54,7.63,11.3,14,13.48S514.41,655.28,521.17,655.28Z"/><circle class="cls-4" cx="512.28" cy="309.3" r="23.25"/><polygon class="cls-4" points="515.18 451.2 472.11 448.93 479.14 421.15 482.12 409.37 509.85 410.91 513.83 441 515.18 451.2"/><path class="cls-4" d="M513.83,441a50.05,50.05,0,0,1-34.69-19.85l3-11.78,27.73,1.54Z"/><path class="cls-4" d="M545.69,384.82a57.94,57.94,0,0,1-26.85,26.93,48.49,48.49,0,0,1-24.79,4.87A43.31,43.31,0,0,1,479.93,413a13.15,13.15,0,0,1-1.23-.54c-1.07-.5-2.1-1.07-3.11-1.65C462.27,403.13,453,388.58,451,371.6a59.9,59.9,0,0,1,1.39-21.45c4.07-16.57,14.91-29.92,28.68-36.58a45.07,45.07,0,0,1,23.16-4.5c21.2,1.53,35.69,12.75,42.48,28.52.19.41.33.81.5,1.21a40.73,40.73,0,0,1,1.37,3.94h0c.06.19.11.38.15.56a8.94,8.94,0,0,1,.27.88c.21.7.37,1.37.53,2.1a.08.08,0,0,0,0,.06c.29,1.17.52,2.34.72,3.53a63.54,63.54,0,0,1,.53,16.61,54,54,0,0,1-1,6.38A54.9,54.9,0,0,1,545.69,384.82Z"/><path class="cls-4" d="M461.85,374.78c-8.06-8.93-16.45-8.1-18.14,4.18s11.27,20.2,20.07,15.2S461.85,374.78,461.85,374.78Z"/><path class="cls-4" d="M454.17,376.22c-4.51-.13-4.77,13.27,4.92,12.24,0,0-2-2.92-2.21-4.17a17.61,17.61,0,0,1,.81-4.16Z"/><path class="cls-4" d="M535.29,380.42c7.43-9.47,15.86-9.22,18.39,2.92s-9.85,20.92-19,16.55S535.29,380.42,535.29,380.42Z"/><path class="cls-4" d="M542.84,381.45c4.47-.59,6.06,12.73-3.68,12.66a30.7,30.7,0,0,0,1.75-4.55c.29-1.79-1.19-3.87-1.19-3.87Z"/><path class="cls-4" d="M525.7,410.28h0c-.35.6-.72,1.18-1.11,1.76v0c-5.33,8-13.29,13.48-25.08,13.71-15.8.34-25.33-6.56-30.89-16.53a41.66,41.66,0,0,1-2.54-5.4c-9.8-24.9-1-62.11-1-62.11l68.7,5.28S539.38,387.32,525.7,410.28Z"/><path class="cls-4" d="M465.15,336.43s-.31,18.95,38.09,23.64l-3.8-9.41s10.11,18.72,45.38,14.63l-11.83-34-53.56-4.12Z"/><path class="cls-4" d="M529,358.32c-25.39,2.95-32.67-10.53-32.67-10.53l2.73,6.77c-27.64-3.37-27.41-17-27.41-17"/><path class="cls-4" d="M530.8,378.38a13,13,0,0,0-.3-2.06,14.28,14.28,0,0,0-.8-2.5,14.5,14.5,0,0,0-4.35-5.69,14.36,14.36,0,0,0-17.79,0,14.47,14.47,0,0,0-4.35,5.69,14.14,14.14,0,0,0-.64,1.83A6.42,6.42,0,0,0,498.7,374h-.06a7.67,7.67,0,0,0-4.54,1.39,13.67,13.67,0,0,0-.33-1.57,14.48,14.48,0,0,0-10.69-10.25,13.59,13.59,0,0,0-2.48-.34A14.42,14.42,0,0,0,466,373.82a13.57,13.57,0,0,0-.49,3.07,14.79,14.79,0,0,0,0,1.49,14.13,14.13,0,0,0,1.75,6.14,14.47,14.47,0,0,0,3.94,4.55,14.33,14.33,0,0,0,17.33,0,14.39,14.39,0,0,0,5.65-10.21c.13-.13.3-.3.51-.48a5.85,5.85,0,0,1,3.79-1.63h0a4.28,4.28,0,0,1,2.89,1.62,6.33,6.33,0,0,1,.67.84,14.43,14.43,0,0,0,.93,5.3,14.38,14.38,0,0,0,24.1,4.55,14.07,14.07,0,0,0,2.79-4.55,13.11,13.11,0,0,0,.72-2.7,11.51,11.51,0,0,0,.2-1.68A14.72,14.72,0,0,0,530.8,378.38Zm-41.57,6.14a11.72,11.72,0,0,1-7.45,4.55,11.89,11.89,0,0,1-2.47.14,11.4,11.4,0,0,1-1.31-.14,11.66,11.66,0,0,1-9.71-10.69,12.32,12.32,0,0,1,0-1.36,11.28,11.28,0,0,1,.62-3.2A11.64,11.64,0,0,1,480.47,366a11.47,11.47,0,0,1,6.15,2.14,11.67,11.67,0,0,1,4.25,5.69,11.31,11.31,0,0,1,.63,4.36c0,.07,0,.13,0,.2A11.53,11.53,0,0,1,489.23,384.52Zm33.67,4.55a11.48,11.48,0,0,1-7,2,11.64,11.64,0,0,1-9.86-6.51,11.52,11.52,0,0,1-1.17-5.67l0-.47a11.52,11.52,0,0,1,1.4-4.56,11.7,11.7,0,0,1,7.43-5.69,11.46,11.46,0,0,1,3.33-.32,11.72,11.72,0,0,1,2.16.32,11.59,11.59,0,0,1,7.44,5.69,11.46,11.46,0,0,1,1.4,4.56,11,11,0,0,1,0,1.62,11.41,11.41,0,0,1-1.17,4.52A11.62,11.62,0,0,1,522.9,389.07Z"/><path class="cls-4" d="M510.49,400.54a10.54,10.54,0,0,1-1.23,2.88c-.22.34-.45.7-.73,1.06l-.42.5-.25.26c-1.87,2.05-4.95,4-10.11,3.81v0l-.38,0v0c-4.81-.31-7.71-2.27-9.41-4.35,0,0,0,0,0-.07a4.81,4.81,0,0,1-.4-.52v0a10.76,10.76,0,0,1-1-1.73,11.18,11.18,0,0,1-1-3Z"/><path class="cls-4" d="M480.22,381.45h0a3.19,3.19,0,0,1-3.18-3.18v-3.42a3.19,3.19,0,0,1,3.18-3.18h0a3.19,3.19,0,0,1,3.18,3.18v3.42A3.19,3.19,0,0,1,480.22,381.45Z"/><path class="cls-4" d="M515.1,382.6h0a3.19,3.19,0,0,1-3.18-3.18V376a3.19,3.19,0,0,1,3.18-3.18h0a3.19,3.19,0,0,1,3.18,3.18v3.42A3.19,3.19,0,0,1,515.1,382.6Z"/><path class="cls-4" d="M502.41,414.3c.09,1.13-1.92,2.21-4.5,2.42s-4.74-.53-4.83-1.66,1.92-2.22,4.5-2.43S502.31,413.17,502.41,414.3Z"/><path class="cls-4" d="M482.52,360.43c-10.82,2.82-17.61,1-8.43-2.17S488.13,359,482.52,360.43Z"/><path class="cls-4" d="M502.64,388.45l-5-8.92-5.92,8.34c-1.47,2.08,2,2.45,2,2.45s-.17,2.05,3.23,2.42c3.43,0,3.47-2.07,3.47-2.07S503.9,390.66,502.64,388.45Z"/><path class="cls-4" d="M580.77,776.46H559.46l-132.22-.33,0-.14a.32.32,0,0,0,0-.09l-.21-1c0-.09,0-.19-.06-.31-.29-1.38-.72-3.54-1.27-6.49-.05-.22-.1-.45-.14-.68-.27-1.42-.57-3-.89-4.76-.07-.39-.14-.78-.22-1.19-.25-1.35-.52-2.8-.78-4.35-.07-.35-.13-.7-.2-1.05q-.44-2.44-.91-5.19c-.11-.67-.23-1.36-.35-2.05l-.12-.7c-.11-.62-.21-1.24-.32-1.88q-1.11-6.54-2.41-14.6c-.15-1-.31-1.91-.46-2.9-.46-2.9-.93-5.93-1.43-9.1h0c-.24-1.62-.5-3.27-.76-5-.21-1.4-.43-2.84-.64-4.29s-.44-2.94-.67-4.46c-6.45-43.57-2-59.84-1-62.66l.17-.45c12.54,8.72,24.53,12,35.22,12.35,26.14.77,38.5-17.68,38.5-17.68s23.13,26.5,59.88,10c2.11-1,4.26-2,6.46-3.3a111.71,111.71,0,0,0,12.5-8.29c.6,2.37,1.18,4.89,1.72,7.56.08.38.15.75.23,1.14.86,4.21,1.64,8.74,2.38,13.51.13.78.25,1.57.36,2.36l.12.83c.14.86.26,1.73.38,2.61.47,3.27.91,6.63,1.32,10.06.09.71.17,1.41.25,2.13.12.93.23,1.88.33,2.82.13,1.11.26,2.23.38,3.34.22,2,.42,4,.63,6,.08.79.15,1.58.23,2.37.1,1,.2,2,.29,2.93s.18,2,.28,2.93.17,2,.25,2.94c.11,1.17.22,2.32.31,3.48.15,1.77.3,3.53.44,5.28q.48,5.82.87,11.48l0,.21c.06.9.13,1.81.19,2.69s.12,1.78.17,2.66q.06.69.09,1.38c.05.63.1,1.26.14,1.89s.09,1.46.13,2.18c.12,1.79.23,3.54.33,5.27.13,2.16.24,4.26.36,6.3.07,1.23.13,2.44.19,3.62l.06,1.17c.29,5.45.53,10.37.7,14.55,0,.59,0,1.18.07,1.75.05,1.14.09,2.22.14,3.22.05,1.26.09,2.41.13,3.46,0,.83.06,1.6.08,2.28h0c0,.52,0,1,0,1.41a1,1,0,0,1,0,.17c0,.22,0,.42,0,.61v0c0,.3,0,.57,0,.82s0,.27,0,.39a2.81,2.81,0,0,1,0,.29c0,.16,0,.29,0,.39S580.77,776.46,580.77,776.46Z"/><path class="cls-4" d="M527.44,435.76s-2.21-9.52-9.12-7.82-23.52,11.45-23.52,11.45-19.35-5.94-25-5.52-6.66,9.12-6.66,9.12h0c14.29,35,57.11,41.78,64.67-6.58C527,436.56,528.2,435.62,527.44,435.76Z"/><polyline class="cls-4" points="488.42 460.28 495.62 443.21 508.08 457.98"/><path class="cls-5" d="M584.39,780.08H563.08l-132.23-.33,0-.14a.3.3,0,0,0,0-.1l-.21-1c0-.09,0-.2-.07-.31-.28-1.38-.71-3.55-1.27-6.49-.05-.23-.09-.45-.13-.69-.28-1.41-.57-3-.89-4.75-.07-.39-.15-.78-.23-1.19-.24-1.36-.51-2.8-.78-4.35-.06-.35-.12-.7-.19-1.06-.29-1.63-.6-3.35-.91-5.19-.12-.66-.23-1.35-.35-2.05,0-.23-.08-.46-.13-.69-.1-.62-.2-1.24-.31-1.88q-1.11-6.55-2.41-14.6c-.16-1-.31-1.92-.46-2.9-.47-2.9-.94-5.94-1.43-9.11h0c-.25-1.62-.5-3.27-.76-5-.21-1.4-.43-2.84-.64-4.29s-.45-3-.67-4.46c-6.45-43.57-2-59.84-1-62.66l.18-.45c12.54,8.71,24.52,12,35.22,12.34-11.23,65.73,69.4,101.44,109.43,114.94,9,3.05,16,5,19.37,5.85C583.6,779.89,584.39,780.08,584.39,780.08Z"/><path class="cls-6" d="M583.66,766C582,742.37,576.37,693,558.17,647.73a111.71,111.71,0,0,0,12.5-8.29c5.32,20.93,8.71,54.58,10.78,83.72l0,.22Z"/><line class="cls-4" x1="557.52" y1="594.75" x2="553.77" y2="594.08"/><line class="cls-4" x1="549.01" y1="598.21" x2="545.2" y2="597.44"/><rect class="cls-4" x="528.54" y="307.98" width="10.66" height="3.34" transform="matrix(0.98, -0.19, 0.19, 0.98, -49.4, 107.92)"/><circle class="cls-4" cx="541.53" cy="307.73" r="4.21"/><path class="cls-4" d="M412.85,470.39c-10.33,16.66-30.86,48.31-38.39,66.47-4.28,10.34,4.92,18.28,13.29,20.82s17-12.67,17.71-15.66c10.78-17.55,22.51-24.72,28.88-44.4,3.83-11.83,5.89-37.8-.11-40.16S416.81,464,412.85,470.39Z"/><path class="cls-4" d="M445.43,460.28c4.52,15.32-13.16,54-13.16,54l-23.43,33.49c-12.34-1.64-34.65-24.33-34.65-24.33s21.72-35.1,30.93-46.81,19.56-25.92,33-24.45C439.75,452.35,444.75,458,445.43,460.28Z"/><path class="cls-4" d="M343.47,469.45c8.17,11.07,44.84,44.06,57,70.32,4.72,10.22-5.7,19.72-13.6,18.39-4.65-.79-12.24-3.84-19.06-10.23s-37.74-59.57-41.34-70.25S335.3,458.39,343.47,469.45Z"/><path class="cls-4" d="M328,456a100.07,100.07,0,0,0-14.65-4.54c-8.6-2-20-3.42-28.56-2.28-7.36,1.07-6,5.54,1.27,6.11a158.85,158.85,0,0,1,19.82,2.81c8,1.67,15.81,4.31,19.64,6.93C333,470.3,335.28,458.75,328,456Z"/><path class="cls-4" d="M330.22,465.51A109.61,109.61,0,0,0,313,458.62c-10-3.18-23.33-5.5-31.76-4.8-7.24.65-6.19,5.12.89,6.09a167.86,167.86,0,0,1,23.31,4.73c9.58,2.68,18.29,6.7,21.4,9.7C332.78,480.4,336.34,469,330.22,465.51Z"/><path class="cls-4" d="M333.33,474a94,94,0,0,0-15.57-7.36c-9.14-3.46-21.42-6.21-29.29-5.81-6.76.39-5.87,4.9.66,6.12a148.41,148.41,0,0,1,21.38,5.52c8.72,3,16.52,7.24,19.18,10.33C334.76,489,338.78,477.57,333.33,474Z"/><path class="cls-4" d="M332.34,480.33a83.53,83.53,0,0,0-13.2-6.88c-7.75-3.29-18.18-6.08-24.9-5.95-5.79.17-5.14,4.32.42,5.65a157.18,157.18,0,0,1,18.41,6c7.59,2.9,14.48,6.44,17.78,7.6C336.77,488.88,337,483.66,332.34,480.33Z"/><path class="cls-4" d="M322.85,483.08a32.34,32.34,0,0,0,5.13,3.3c2.92,1.46,6.45,2.54,10.22.81,3.4-1.64,9.89-15.6,1.21-24.05-1.79-4.32-.77-17.94-.29-22.37.42-3.9-9.44-2.73-9.77,4.53-.23,5.08-1.45,13-6.6,12.83-2.68-.05-2.19,6.13-1.52,12.38S322.89,483.07,322.85,483.08Z"/><path class="cls-4" d="M322.1,461.83c-1-.38-2.08-.76-3.13-1.12s-2.1-.71-3.16-1-2.12-.64-3.19-.95l-1.59-.46-1.6-.44a130.9,130.9,0,0,0-13-2.74q-3.29-.52-6.58-.83a61,61,0,0,0-6.62-.28h-.41l-.41,0-.83,0a14.76,14.76,0,0,0-1.63.17,9.35,9.35,0,0,0-1.58.39,4.28,4.28,0,0,0-1.39.77,2.12,2.12,0,0,0-.47.61,1.34,1.34,0,0,0-.1.74,2,2,0,0,0,.29.72,3.87,3.87,0,0,0,.54.61,6.35,6.35,0,0,0,1.38.88,10.24,10.24,0,0,0,1.54.6,7.83,7.83,0,0,1-3-1.36,3.41,3.41,0,0,1-.59-.61,1.94,1.94,0,0,1-.36-.8,1.6,1.6,0,0,1,.08-.89,2.05,2.05,0,0,1,.51-.72,4.36,4.36,0,0,1,1.47-.89,9.42,9.42,0,0,1,1.63-.46,13.8,13.8,0,0,1,1.68-.22l.83-.06.42,0h.42a71.5,71.5,0,0,1,13.31,1c2.19.36,4.38.77,6.55,1.25s4.33,1,6.47,1.65l1.6.47,1.59.51c1.05.33,2.11.68,3.16,1.05C318,460.13,320.07,460.93,322.1,461.83Z"/><path class="cls-4" d="M323.68,469l-1.47-.59-1.48-.57c-1-.37-2-.73-3-1.06-2-.71-4-1.35-6-1.95s-4.07-1.12-6.13-1.6c-1-.24-2.06-.46-3.09-.68l-1.56-.3c-.51-.1-1-.18-1.55-.27-2.08-.35-4.17-.63-6.27-.79l-1.58-.1L290,461c-.53,0-1,0-1.57,0a13,13,0,0,0-1.54.18,6.88,6.88,0,0,0-1.46.44l-.18.08-.16.09a3.37,3.37,0,0,0-.31.21l-.14.11-.14.12a2.09,2.09,0,0,0-.22.28,2.91,2.91,0,0,0-.17.3,1.86,1.86,0,0,0-.07.34,1.38,1.38,0,0,0,.11.69.61.61,0,0,0,.07.17,1.29,1.29,0,0,0,.09.16,3.21,3.21,0,0,0,.21.3l.12.15.14.13a1.73,1.73,0,0,0,.28.26,5.91,5.91,0,0,0,1.3.84,9.69,9.69,0,0,0,1.46.59c.25.09.5.15.75.22l.78.18,1.55.34-1.57-.25-.79-.14c-.25-.06-.52-.11-.77-.19a9,9,0,0,1-1.51-.53,7,7,0,0,1-1.4-.81,4,4,0,0,1-.31-.27l-.15-.14-.14-.16a2.76,2.76,0,0,1-.45-.71,1.91,1.91,0,0,1-.16-.86,3.11,3.11,0,0,1,.08-.44,1.87,1.87,0,0,1,.2-.4,2.88,2.88,0,0,1,.26-.35l.16-.15.16-.13a3.64,3.64,0,0,1,.35-.24l.18-.11.19-.09a7.33,7.33,0,0,1,1.56-.52,12.31,12.31,0,0,1,1.6-.22l1.61-.06,1.59,0,1.6.08c2.12.14,4.23.42,6.33.77s4.18.78,6.24,1.29,4.11,1.06,6.13,1.71,4,1.35,6,2.13c1,.38,2,.78,2.94,1.2l1.45.64Z"/><path class="cls-4" d="M321.93,474.65l-1.45-.57L319,473.5l-1.45-.56-1.46-.53q-2.94-1-5.92-1.89c-2-.56-4-1.08-6-1.51a57.61,57.61,0,0,0-6.11-1c-1-.1-2.05-.18-3.08-.19h-.76c-.26,0-.51,0-.76.05a6.9,6.9,0,0,0-1.45.29,2.89,2.89,0,0,0-1.2.71,1.26,1.26,0,0,0-.32,1.18,2.18,2.18,0,0,0,.27.63,3.44,3.44,0,0,0,.47.54,5.27,5.27,0,0,0,1.2.87,9.55,9.55,0,0,0,1.39.6l.36.11.37.11.75.2c1,.27,2,.56,3,.86s2,.63,3,1l1.47.5,1.47.52-3-.86-3-.82c-1-.26-2-.52-3-.76l-.76-.18-.38-.09-.38-.12a9.51,9.51,0,0,1-1.48-.59,6.13,6.13,0,0,1-1.34-.92,3.32,3.32,0,0,1-.55-.63,2.47,2.47,0,0,1-.36-.79,1.76,1.76,0,0,1,0-.91,1.74,1.74,0,0,1,.43-.8,2.84,2.84,0,0,1,.67-.54,4.71,4.71,0,0,1,.76-.35,7.38,7.38,0,0,1,1.59-.33c.27,0,.53,0,.8-.05H295c1.05,0,2.09.08,3.14.18a65.9,65.9,0,0,1,12.2,2.67c2,.61,3.95,1.31,5.89,2.07S320.06,473.77,321.93,474.65Z"/><path class="cls-4" d="M579.36,475.42c10.32,16.65,35.43,51.33,45.38,68.28,11,18.69-1.91,28.44-14.18,26-8.57-1.72-23.12-18.49-25.27-21.83s-21-25.53-27.42-45.2c-3.83-11.83-5.9-37.81.11-40.17S575.39,469,579.36,475.42Z"/><path class="cls-4" d="M441.86,473l-4.05-11.38s50.37-4.32,62.93,14.24c0,0,34.8-16.94,62.49-10.86l-5,10.47-56.81,9.34Z"/><path class="cls-4" d="M513.72,477.35q-12.35-.62-24.71,0a249.41,249.41,0,0,0-58.72-9.77c4.62,30.42,9.47,60.51,14.09,90.94a199.82,199.82,0,0,1,47.15,12,195.53,195.53,0,0,1,19.67,0,199.94,199.94,0,0,1,47.15-12c4.62-30.43,9.46-60.45,14.07-90.88A249.79,249.79,0,0,0,513.72,477.35Z"/><path class="cls-4" d="M511.2,572.33a195.53,195.53,0,0,0-19.67,0L489,479.19a242.45,242.45,0,0,1,24.71,0Z"/><path class="cls-4" d="M511.2,572.33a200,200,0,0,1,47.15-12l13.86-91.26a247.9,247.9,0,0,0-58.49,10.1Z"/><path class="cls-4" d="M444.38,560.35a199.84,199.84,0,0,1,47.15,12L489,479.19a247.72,247.72,0,0,0-58.49-10.1Z"/><path class="cls-4" d="M546.78,465.31c-4.52,15.31,13.16,54,13.16,54l19.24,27.14c11.54-2.17,37.55-22,37.55-22s-20.43-31.06-29.64-42.78-19.57-25.92-33-24.45C552.46,457.37,547.46,463,546.78,465.31Z"/><path class="cls-4" d="M444.55,469l-4.06-11.38s50.37-4.32,62.94,14.24c0,0,34.79-16.93,62.48-10.86L561,471.44l-56.81,9.35Z"/><path class="cls-4" d="M516.4,473.35q-12.34-.62-24.7,0A249.49,249.49,0,0,0,433,463.58c4.62,30.42,9.47,60.52,14.09,90.94a200.51,200.51,0,0,1,47.16,12,195.33,195.33,0,0,1,19.66,0,200.51,200.51,0,0,1,47.16-12c4.62-30.42,9.45-60.45,14.07-90.87A249.26,249.26,0,0,0,516.4,473.35Z"/><path class="cls-4" d="M513.88,568.33a195.33,195.33,0,0,0-19.66,0l-2.52-93.14q12.35-.62,24.7,0Z"/><path class="cls-4" d="M513.88,568.33a200.53,200.53,0,0,1,47.16-12q6.93-45.63,13.85-91.26a247.9,247.9,0,0,0-58.49,10.1Z"/><path class="cls-4" d="M447.06,556.35a200.53,200.53,0,0,1,47.16,12l-2.52-93.14a247.9,247.9,0,0,0-58.49-10.1Q440.14,510.72,447.06,556.35Z"/><path class="cls-4" d="M520.55,559.5s60.43,20.29,86.59,15.6c36.24-6.5,15-32.54.53-33-8.58-.25-69.88-.31-83.42-.57C518,541.89,509.51,550.82,520.55,559.5Z"/><path class="cls-4" d="M529.28,561c-5.56,2.79-12.38.66-18.57.79-2.52.05-5.48-.13-6.81-2.14a7,7,0,0,1-.74-3.92c0-4.35,5.08-9.35,5.4-15,.23-3.95,4.05-9.52,6-8.79,5.54,2.06,18.37,9.26,18.77,12.36S534,558.68,529.28,561Z"/><path class="cls-4" d="M512.2,536.45c-1.88-3.72-5.1-6.7-9.3-11.78-2.8-3.38-.23-9,2.54-6.51,2.48,2.21,9.73,9.11,11,10.31s5.74,8.46,6,10.45S515.21,542.42,512.2,536.45Z"/><path class="cls-4" d="M508.6,544c-5.05-.37-8.34-.39-13.78-3.31-4.64-2.47-13.5-6.47-18.23-9-3.24-1.75.91-5.25,5.34-2.86,4.84,2.61,8.33,3.4,14.56,6,5.06,2.09,10.86,1.16,16.12,2.53C516.15,538.19,512.26,544.22,508.6,544Z"/><path class="cls-4" d="M509.16,549.61c-6.16.59-8,2.47-14.26,1.64-5.31-.71-9.55-1.55-15-2.3-3.71-.52-.73-4.84,3-4.32,5.55.77,4.51.33,11.36.59,5.56.21,10.69-2.63,16.17-3.16C514.13,541.71,512.86,549.25,509.16,549.61Z"/><path class="cls-4" d="M509.46,557.22a120,120,0,0,1-13.55.69,73.26,73.26,0,0,1-8.32-.5c-4.7-1.18-4.18-4.21-2-4.44a92.44,92.44,0,0,1,10.1-.14c5.56.19,9.54-2.62,15-3.15C514.44,549.33,513.16,556.87,509.46,557.22Z"/><path class="cls-4" d="M507.68,560.26c-1.72,1.88-6.35,4.27-6.35,4.27a92.75,92.75,0,0,1-11.22-2.24c-3.47-1.12-2.87-3.88.56-3.36s9.44.79,10.26-.06,3.08-3,3.82-3.78C506.6,553.06,509.54,558.23,507.68,560.26Z"/><rect class="cls-7" x="76.28" y="233.16" width="531.58" height="330.96"/><path class="cls-8" d="M597,245.35q3.88-4.46,7.78-8.89a.88.88,0,0,0,0-1.22.87.87,0,0,0-1.22,0l-7.78,8.89a.86.86,0,1,0,1.22,1.22Z"/><path class="cls-8" d="M88.8,244.3a91.83,91.83,0,0,1-7.64-7.12c-.68-.71-1.35-1.43-2-2.15a.85.85,0,0,0-1.21,0,.86.86,0,0,0,0,1.21,93.43,93.43,0,0,0,7.4,7.36c.74.65,1.48,1.29,2.24,1.92a.86.86,0,1,0,1.22-1.22Z"/><polygon class="cls-8" points="76.28 564.12 78.41 564.12 89.67 550.74 76.28 564.12"/><polygon class="cls-8" points="594.48 550.74 607.86 564.12 606.53 564.12 594.48 550.74"/><rect class="cls-9" x="189.97" y="146.24" width="304.19" height="504.81" transform="translate(-56.57 740.71) rotate(-90)"/><path class="cls-10" d="M99.44,506.48c-1.84-40.28-1.84-178.35,0-218.63a36.19,36.19,0,0,1,34.38-34.5c149.66-7.4,430.59-5.54,446.21-1.67s12.48,209,9.46,271.7c-.94,19.67-18.23,21.63-37.92,21.09-138-3.78-279.78,3.33-417.75-3.48A36.2,36.2,0,0,1,99.44,506.48Z"/><path class="cls-11" d="M556.57,542.78c-1.49,0-65.91-1.32-104.15-1.32-28,0-140.27.84-168.32.84-60.39,0-106.65-1-150-3.24A29.77,29.77,0,0,1,114,529.73a32.48,32.48,0,0,1-8.85-21c-1.82-41.77-1.82-183,0-224.74a32.48,32.48,0,0,1,8.85-21,29.83,29.83,0,0,1,20.07-9.34c92.28-4.77,220.14-5.28,270.83-5.28,44.53,0,86.78.36,119,1,41.68.84,55.57,4.64,56.68,9.09a136.29,136.29,0,0,1,2.86,17.78c1.45,13.48,2.34,31.69,2.66,54.13.68,47.92,5.75,184.51-1.76,198.18S570.7,542.78,556.57,542.78Z"/><path class="cls-12" d="M184.79,281.18q49.92-1.59,99.87-2,49.69-.42,99.38.34,28,.42,56,1.22c4.06.11,4.06-6.21,0-6.32q-49.93-1.41-99.88-1.66-49.68-.24-99.37.69-28,.53-56.05,1.42c-4,.13-4.07,6.45,0,6.32Z"/><path class="cls-12" d="M467.66,308.21h38.25a3.26,3.26,0,0,0,2.23-.93,3.15,3.15,0,0,0,0-4.47,3.23,3.23,0,0,0-2.23-.92H467.66a3.16,3.16,0,0,0-3.16,3.16,3.22,3.22,0,0,0,.93,2.23,3.28,3.28,0,0,0,2.23.93Z"/><path class="cls-12" d="M330.68,521.86H551.27a3.16,3.16,0,0,0,0-6.32H330.68a3.16,3.16,0,0,0,0,6.32Z"/><path class="cls-9" d="M597,245.35q3.88-4.46,7.78-8.89a.88.88,0,0,0,0-1.22.87.87,0,0,0-1.22,0l-7.78,8.89a.86.86,0,1,0,1.22,1.22Z"/><path class="cls-9" d="M88.8,244.3a91.83,91.83,0,0,1-7.64-7.12c-.68-.71-1.35-1.43-2-2.15a.85.85,0,0,0-1.21,0,.86.86,0,0,0,0,1.21,93.43,93.43,0,0,0,7.4,7.36c.74.65,1.48,1.29,2.24,1.92a.86.86,0,1,0,1.22-1.22Z"/><polygon class="cls-7" points="594.48 550.92 89.67 550.92 70.65 557.38 614.68 557.38 594.48 550.92"/><rect class="cls-13" x="70.65" y="557.37" width="544.03" height="6.75"/><path class="cls-14" d="M278.51,527.69h-38c-7.18,0-6.75,5-6.75,5v13h51.52v-13S285.68,527.69,278.51,527.69Z"/><rect class="cls-15" x="233.73" y="544.36" width="51.52" height="3.5"/><rect class="cls-16" x="233.73" y="534.77" width="51.52" height="4.99"/><polygon class="cls-17" points="227.85 547.86 207.79 544.74 208.46 541.34 228.35 544.58 227.85 547.86"/><path class="cls-15" d="M224.68,547.36l-16.89-2.62.67-3.4.85.14s-.84,2.13,2.55,3.19S224.68,547.36,224.68,547.36Z"/><polygon class="cls-17" points="225.54 547.58 205.24 547.86 205.33 544.39 225.48 544.27 225.54 547.58"/><path class="cls-15" d="M222.33,547.62l-17.09.24.09-3.47h.87s-.48,2.24,3,2.72S222.33,547.62,222.33,547.62Z"/><rect class="cls-15" x="296.54" y="528.93" width="27.59" height="18.93"/><polygon class="cls-17" points="305.9 527.69 315.82 527.69 324.19 528.93 296.6 528.93 305.9 527.69"/><path class="cls-18" d="M534.92,640.4c14.68,0,28-1.51,40.73-9.41,10-6.21,6.85-19,4.62-29.29-.88-4.09-2.07-8.12-3-12.21-3.1-14-2.91-28.46-2.7-42.79.11-7.57.3-15.46,3.8-22.19,2.38-4.59,6.16-8.31,8.8-12.77,4.76-8,5.45-17.76,5.62-27.09.17-8.87-.09-18-3.76-26.14C583,445.07,569,437.37,555.83,430.6c-4.41-2.28-8.87-4.58-13.67-5.86-5.42-1.45-11.1-1.56-16.71-1.62-25.63-.27-52,.49-75.58,10.62a30.5,30.5,0,0,0-9.12,5.48,30.13,30.13,0,0,0-5.76,8.32c-10.79,21-15.42,48.18-5.47,69.74a102.71,102.71,0,0,1,3,77.78c-2.43,6.56-5.56,12.94-6.75,19.83s-.09,14.67,4.9,19.57c4.34,4.25,10.68,5.57,16.66,6.61,10,1.74,20.28,3.22,30.23,1.23s19.63-8.1,23.27-17.57c1.71,6.54,7.62,11.3,14,13.48S528.17,640.4,534.92,640.4Z"/><circle class="cls-19" cx="526.04" cy="294.42" r="23.25"/><polygon class="cls-20" points="528.93 436.32 485.86 434.05 492.89 406.27 495.88 394.49 523.61 396.04 527.59 426.12 528.93 436.32"/><path class="cls-21" d="M527.59,426.12a50.05,50.05,0,0,1-34.7-19.85l3-11.78L523.61,396Z"/><path class="cls-22" d="M559.45,369.94a58,58,0,0,1-26.85,26.93,48.49,48.49,0,0,1-24.79,4.87,43,43,0,0,1-14.12-3.59,12,12,0,0,1-1.24-.54c-1.06-.5-2.1-1.07-3.1-1.65-13.32-7.71-22.59-22.25-24.57-39.24a59.81,59.81,0,0,1,1.39-21.44c4.06-16.58,14.91-29.93,28.67-36.59a45.11,45.11,0,0,1,23.17-4.5c21.19,1.54,35.69,12.75,42.48,28.53.19.41.33.8.5,1.2a40.73,40.73,0,0,1,1.37,3.94h0c.06.19.12.38.16.56a8.94,8.94,0,0,1,.27.88c.21.7.37,1.37.53,2.11,0,0,0,.05,0,.05.28,1.17.52,2.35.71,3.53a63.53,63.53,0,0,1,.54,16.61,53.63,53.63,0,0,1-1,6.38A55.43,55.43,0,0,1,559.45,369.94Z"/><path class="cls-20" d="M475.61,359.91c-8.06-8.94-16.45-8.11-18.14,4.17s11.27,20.2,20.07,15.21S475.61,359.91,475.61,359.91Z"/><path class="cls-21" d="M467.92,361.34c-4.5-.13-4.76,13.28,4.92,12.24,0,0-2-2.92-2.2-4.17a17.22,17.22,0,0,1,.81-4.16Z"/><path class="cls-20" d="M549.05,365.54c7.42-9.47,15.86-9.21,18.39,2.92s-9.85,20.92-19,16.55S549.05,365.54,549.05,365.54Z"/><path class="cls-21" d="M556.59,366.57c4.48-.59,6.07,12.73-3.67,12.67a30.05,30.05,0,0,0,1.74-4.56c.3-1.79-1.18-3.87-1.18-3.87Z"/><path class="cls-20" d="M539.46,395.4h0c-.36.6-.73,1.18-1.11,1.76v0c-5.33,8-13.29,13.48-25.08,13.71-15.8.34-25.33-6.56-30.89-16.53a41.66,41.66,0,0,1-2.54-5.4c-9.8-24.9-1-62.1-1-62.1l68.7,5.27S553.14,372.45,539.46,395.4Z"/><path class="cls-22" d="M478.91,321.55S478.6,340.5,517,345.19l-3.79-9.41s10.11,18.72,45.37,14.63l-11.83-34-53.55-4.11Z"/><path class="cls-19" d="M542.73,343.44l-4.48.61c-1.5.09-3,.22-4.54.26l-2.28,0-1.14,0-1.15-.11-2.29-.23c-.76-.12-1.51-.27-2.27-.41a31.38,31.38,0,0,1-8.82-3.16,25.27,25.27,0,0,1-4-2.71,19.07,19.07,0,0,1-1.8-1.69c-.28-.31-.57-.6-.84-.94a10.35,10.35,0,0,1-.82-1.14l3.61-1.7h0l2.73,6.77,1.32,3.26-3.41-.52h0l-4.35-.92c-1.44-.33-2.87-.79-4.29-1.18s-2.8-1-4.2-1.49c-.68-.29-1.35-.62-2-.93a18.43,18.43,0,0,1-2-1L493.78,335,492,333.7a21.34,21.34,0,0,1-3.23-3.07,16.48,16.48,0,0,1-1.33-1.78c-.21-.3-.37-.64-.55-1a6.08,6.08,0,0,1-.49-1,10.17,10.17,0,0,1-1-4.24,10,10,0,0,0,1.43,4,6.47,6.47,0,0,0,.58.89,8.9,8.9,0,0,0,.63.85,16.21,16.21,0,0,0,1.45,1.54,20.68,20.68,0,0,0,3.35,2.52l1.83,1,1.93.85a17.74,17.74,0,0,0,2,.73c.67.21,1.33.45,2,.65,1.38.31,2.72.7,4.11.94s2.77.49,4.17.64l4.21.4h0l-2.1,2.73-2.73-6.77h0l3.62-1.7a5.14,5.14,0,0,0,.42.74c.17.27.38.54.57.81a15,15,0,0,0,1.34,1.55,20.89,20.89,0,0,0,3.18,2.73,28.81,28.81,0,0,0,7.74,3.77l2.11.64,2.16.46,1.09.23,1.1.14,2.21.28c1.49.12,3,.17,4.48.24Z"/><path class="cls-23" d="M544.56,363.51a14.24,14.24,0,0,0-1.1-4.57,14.5,14.5,0,0,0-4.35-5.69,14.37,14.37,0,0,0-17.8,0,14.54,14.54,0,0,0-4.34,5.69,14.14,14.14,0,0,0-.64,1.83,6.42,6.42,0,0,0-3.87-1.64h-.07a7.73,7.73,0,0,0-4.53,1.39,12.21,12.21,0,0,0-.34-1.57,14.24,14.24,0,0,0-3.06-5.69,14.31,14.31,0,0,0-10.1-4.9,14.32,14.32,0,0,0-3.89.34,14.48,14.48,0,0,0-7.65,4.56,14.33,14.33,0,0,0-3.05,5.69,13.57,13.57,0,0,0-.49,3.07c0,.5,0,1,0,1.5a14,14,0,0,0,1.75,6.13A14.36,14.36,0,0,0,508,364c.14-.13.31-.3.52-.47a5.75,5.75,0,0,1,3.79-1.63h0a4.21,4.21,0,0,1,2.89,1.62,6.38,6.38,0,0,1,.67.83,14.43,14.43,0,0,0,.93,5.3,14.37,14.37,0,0,0,24.1,4.55,13.87,13.87,0,0,0,2.78-4.55,13,13,0,0,0,.73-2.7,11.51,11.51,0,0,0,.2-1.68A14.53,14.53,0,0,0,544.56,363.51ZM503,369.64a11.68,11.68,0,0,1-7.45,4.55,11.89,11.89,0,0,1-2.47.14,11.68,11.68,0,0,1-11-10.82,12.52,12.52,0,0,1,0-1.37,11.65,11.65,0,0,1,.63-3.2,11.81,11.81,0,0,1,4.25-5.69,11.68,11.68,0,0,1,7.32-2.14,11.5,11.5,0,0,1,6.15,2.14,11.67,11.67,0,0,1,4.25,5.69,11.51,11.51,0,0,1,.63,4.36c0,.07,0,.13,0,.21A11.69,11.69,0,0,1,503,369.64Zm33.67,4.55a11.5,11.5,0,0,1-7,2,11.61,11.61,0,0,1-9.86-6.51A11.3,11.3,0,0,1,518.6,364l0-.46a11.36,11.36,0,0,1,1.4-4.57,11.7,11.7,0,0,1,7.43-5.69,11.46,11.46,0,0,1,3.33-.32,12.78,12.78,0,0,1,2.16.32,11.69,11.69,0,0,1,8.84,10.26,10.9,10.9,0,0,1,0,1.62,11.36,11.36,0,0,1-1.17,4.51A11.7,11.7,0,0,1,536.66,374.19Z"/><path class="cls-24" d="M524.24,385.66a10.4,10.4,0,0,1-1.22,2.89c-.22.33-.46.7-.73,1.05-.12.15-.27.34-.42.5l-.25.26c-1.88,2.05-5,4-10.11,3.81v0l-.38,0,0,0c-4.8-.31-7.7-2.26-9.4-4.35,0,0,0,0,0-.07-.15-.16-.28-.35-.41-.52v0a12.12,12.12,0,0,1-1-1.72,11.47,11.47,0,0,1-.95-3Z"/><path class="cls-25" d="M494,366.57h0a3.19,3.19,0,0,1-3.18-3.17V360a3.19,3.19,0,0,1,3.18-3.18h0a3.19,3.19,0,0,1,3.18,3.18v3.43A3.19,3.19,0,0,1,494,366.57Z"/><path class="cls-25" d="M528.86,367.72h0a3.19,3.19,0,0,1-3.18-3.17v-3.43a3.19,3.19,0,0,1,3.18-3.18h0a3.19,3.19,0,0,1,3.17,3.18v3.43A3.18,3.18,0,0,1,528.86,367.72Z"/><path class="cls-21" d="M516.16,399.42c.1,1.13-1.92,2.22-4.49,2.43s-4.74-.54-4.83-1.67,1.92-2.22,4.49-2.43S516.07,398.29,516.16,399.42Z"/><path class="cls-25" d="M496.28,345.55c-10.82,2.82-17.61,1-8.44-2.17S501.89,344.09,496.28,345.55Z"/><path class="cls-26" d="M516.4,373.57l-5-8.92L505.48,373c-1.47,2.08,2,2.45,2,2.45s-.17,2.05,3.23,2.42c3.42,0,3.47-2.06,3.47-2.06S517.65,375.78,516.4,373.57Z"/><path class="cls-27" d="M594.53,761.58H573.22L441,761.25l0-.14a.29.29,0,0,0,0-.09l-.21-1c0-.09,0-.19-.06-.31q-.44-2.07-1.28-6.49c-.05-.22-.09-.45-.13-.68-.28-1.42-.57-3-.89-4.76-.07-.39-.14-.78-.23-1.19-.24-1.35-.51-2.8-.78-4.35-.06-.35-.12-.69-.19-1.05-.29-1.63-.6-3.36-.91-5.19-.12-.67-.23-1.35-.35-2.05l-.12-.7c-.11-.61-.21-1.24-.32-1.88q-1.11-6.54-2.41-14.6c-.16-1-.31-1.91-.46-2.9q-.69-4.35-1.43-9.1h0c-.24-1.62-.5-3.27-.76-5-.21-1.41-.43-2.84-.64-4.3s-.44-2.94-.67-4.46c-6.45-43.57-2-59.84-1-62.66l.17-.45c12.54,8.72,24.52,12,35.22,12.35,26.13.78,38.5-17.68,38.5-17.68s23.13,26.5,59.88,10c2.11-1,4.26-2,6.46-3.29a113.22,113.22,0,0,0,12.49-8.3c.61,2.37,1.18,4.89,1.73,7.56.08.38.15.76.23,1.15.85,4.2,1.64,8.73,2.38,13.5.12.78.25,1.57.36,2.36l.12.83c.14.86.26,1.73.38,2.61.46,3.27.9,6.64,1.31,10.06.1.71.18,1.41.26,2.13.11.94.23,1.88.33,2.82.13,1.11.26,2.23.38,3.34q.32,3,.62,6c.09.79.16,1.58.24,2.37.1,1,.19,2,.29,2.93l.27,2.93c.1,1,.18,2,.26,2.94.11,1.17.22,2.32.31,3.48.15,1.77.29,3.53.44,5.28.32,3.88.6,7.71.87,11.48l0,.21c.06.9.12,1.81.18,2.69s.13,1.78.18,2.66c0,.47.07.92.09,1.38.05.63.09,1.26.14,1.89s.09,1.46.13,2.18c.12,1.79.22,3.55.33,5.27.13,2.16.24,4.26.36,6.3.07,1.23.13,2.44.19,3.62l.06,1.17c.29,5.45.52,10.37.7,14.55,0,.6,0,1.18.07,1.75.05,1.14.09,2.22.13,3.22.06,1.27.1,2.41.14,3.46,0,.83.06,1.6.08,2.29h0c0,.51,0,1,.05,1.4a1,1,0,0,1,0,.17c0,.22,0,.43,0,.61v0c0,.3,0,.57,0,.82s0,.27,0,.39a2.8,2.8,0,0,1,0,.29c0,.16,0,.29,0,.39S594.53,761.58,594.53,761.58Z"/><path class="cls-28" d="M541.2,420.88s-2.21-9.51-9.13-7.82-23.52,11.45-23.52,11.45-19.34-5.94-25-5.52-6.66,9.12-6.66,9.12h0c14.29,35,57.11,41.78,64.67-6.58C540.8,421.68,542,420.74,541.2,420.88Z"/><polyline class="cls-29" points="502.17 445.4 509.38 428.33 521.84 443.1"/><path class="cls-30" d="M598.15,765.2H576.83l-132.22-.33,0-.14a.44.44,0,0,0,0-.1c-.05-.25-.12-.6-.22-1,0-.09,0-.2-.06-.31-.28-1.38-.71-3.55-1.27-6.49-.05-.22-.09-.45-.13-.69-.28-1.41-.58-3-.89-4.75-.08-.39-.15-.78-.23-1.19-.25-1.36-.51-2.8-.78-4.35-.06-.35-.12-.7-.19-1.06-.29-1.63-.6-3.35-.92-5.18-.11-.67-.22-1.36-.34-2.05,0-.24-.09-.47-.13-.7-.1-.62-.2-1.24-.32-1.88-.73-4.37-1.54-9.23-2.4-14.6-.16-1-.31-1.92-.47-2.9-.46-2.9-.93-5.94-1.42-9.1v0c-.25-1.62-.5-3.27-.76-5-.22-1.4-.43-2.84-.65-4.29s-.44-3-.66-4.46c-6.45-43.57-2-59.84-1-62.66l.18-.45c12.54,8.71,24.52,12,35.22,12.34-11.23,65.74,69.4,101.44,109.43,114.94,9,3.06,16,5,19.36,5.85Z"/><path class="cls-31" d="M597.42,751.08c-1.7-23.59-7.29-72.93-25.49-118.23a111.71,111.71,0,0,0,12.5-8.29c5.32,20.93,8.71,54.58,10.78,83.73l0,.21Z"/><line class="cls-32" x1="571.27" y1="579.88" x2="567.53" y2="579.2"/><line class="cls-32" x1="562.77" y1="583.34" x2="558.95" y2="582.56"/><rect x="542.3" y="293.1" width="10.66" height="3.34" transform="matrix(0.98, -0.19, 0.19, 0.98, -46.3, 110.28)"/><circle class="cls-33" cx="555.29" cy="292.86" r="4.21"/><path class="cls-18" d="M426.61,455.51c-10.33,16.66-30.86,48.32-38.39,66.47-4.29,10.35,4.92,18.28,13.28,20.82s17-12.67,17.72-15.66c10.78-17.55,22.5-24.72,28.87-44.39,3.83-11.83,5.9-37.81-.1-40.17S430.57,449.12,426.61,455.51Z"/><path class="cls-18" d="M459.19,445.4c4.51,15.32-13.16,54-13.16,54L422.6,532.88C410.26,531.24,388,508.55,388,508.55s21.72-35.09,30.92-46.81,19.57-25.92,33-24.45C453.51,437.47,458.5,443.08,459.19,445.4Z"/><path class="cls-34" d="M357.23,454.57c8.17,11.07,44.83,44.06,57,70.33,4.73,10.21-5.69,19.71-13.59,18.38-4.65-.79-12.25-3.84-19.07-10.23s-37.73-59.57-41.33-70.25S349.06,443.51,357.23,454.57Z"/><path class="cls-34" d="M341.8,441.07a100.59,100.59,0,0,0-14.65-4.54c-8.6-2-20-3.42-28.56-2.28-7.36,1.07-6,5.54,1.27,6.11a158.85,158.85,0,0,1,19.82,2.81c8,1.67,15.8,4.31,19.64,6.93C346.7,455.42,349,443.88,341.8,441.07Z"/><path class="cls-34" d="M344,450.63a110.78,110.78,0,0,0-17.23-6.89c-10-3.17-23.33-5.5-31.76-4.8-7.24.65-6.19,5.13.89,6.09a169.34,169.34,0,0,1,23.3,4.73c9.59,2.68,18.3,6.7,21.4,9.7C346.54,465.52,350.1,454.12,344,450.63Z"/><path class="cls-34" d="M347.09,459.07a94,94,0,0,0-15.57-7.36c-9.14-3.46-21.42-6.21-29.29-5.81-6.76.39-5.88,4.9.66,6.13a146.68,146.68,0,0,1,21.38,5.51c8.72,3,16.52,7.24,19.18,10.33C348.52,474.09,352.53,462.7,347.09,459.07Z"/><path class="cls-34" d="M346.1,465.45a83.53,83.53,0,0,0-13.2-6.88c-7.75-3.29-18.18-6.08-24.91-5.95-5.78.17-5.13,4.33.43,5.65a157.18,157.18,0,0,1,18.41,6c7.59,2.9,14.47,6.44,17.77,7.6C350.53,474,350.77,468.78,346.1,465.45Z"/><path class="cls-34" d="M336.61,468.2a31.79,31.79,0,0,0,5.13,3.3c2.92,1.46,6.45,2.54,10.22.81,3.4-1.64,9.88-15.6,1.21-24.05-1.79-4.32-.78-17.94-.29-22.37.42-3.9-9.44-2.73-9.77,4.53-.23,5.08-1.45,13-6.6,12.83-2.68-.05-2.19,6.13-1.52,12.38S336.65,468.19,336.61,468.2Z"/><path class="cls-35" d="M335.86,447c-1-.38-2.09-.76-3.13-1.12s-2.1-.71-3.16-1-2.12-.64-3.19-1l-1.59-.46-1.61-.44a130.71,130.71,0,0,0-13-2.74q-3.29-.52-6.58-.83a61,61,0,0,0-6.62-.28h-.41l-.42,0-.82,0a14.76,14.76,0,0,0-1.63.17,9.35,9.35,0,0,0-1.58.39,4.13,4.13,0,0,0-1.39.78,2,2,0,0,0-.47.6,1.34,1.34,0,0,0-.1.74,1.88,1.88,0,0,0,.29.72,3.47,3.47,0,0,0,.54.61,6,6,0,0,0,1.38.88,10.24,10.24,0,0,0,1.54.6,7.68,7.68,0,0,1-3-1.36,3.46,3.46,0,0,1-.6-.61,2.24,2.24,0,0,1-.36-.8A1.61,1.61,0,0,1,290,441a2.05,2.05,0,0,1,.51-.72,4.36,4.36,0,0,1,1.47-.89,9.42,9.42,0,0,1,1.63-.46,15.91,15.91,0,0,1,1.67-.22l.84-.06.42,0H297a72.37,72.37,0,0,1,13.31,1c2.19.36,4.38.77,6.55,1.25s4.33,1,6.47,1.65l1.6.47,1.58.51c1.06.33,2.12.68,3.17,1.05C331.76,445.25,333.83,446.05,335.86,447Z"/><path class="cls-35" d="M337.44,454.09,336,453.5l-1.48-.57c-1-.37-2-.73-3-1.06-2-.71-4-1.35-6-1.95s-4.07-1.12-6.12-1.6c-1-.24-2.06-.46-3.09-.68l-1.56-.3-1.56-.27c-2.08-.35-4.17-.63-6.26-.79l-1.58-.1-1.57,0-1.58,0a13.46,13.46,0,0,0-1.54.18,6.68,6.68,0,0,0-1.46.45l-.17.07-.16.1a2,2,0,0,0-.31.2l-.14.11-.14.12a1.93,1.93,0,0,0-.22.28,1.11,1.11,0,0,0-.24.64,1.38,1.38,0,0,0,.11.69.61.61,0,0,0,.07.17,1.29,1.29,0,0,0,.09.16,3.21,3.21,0,0,0,.21.3l.12.15.13.14.29.26a6.73,6.73,0,0,0,1.3.84,10.2,10.2,0,0,0,1.45.58c.25.09.51.15.76.22l.77.18,1.55.35-1.56-.26-.79-.14c-.26-.06-.52-.11-.77-.19a9,9,0,0,1-1.51-.53,7,7,0,0,1-1.4-.81,2.73,2.73,0,0,1-.31-.27l-.15-.14-.14-.16a2.76,2.76,0,0,1-.45-.71,1.91,1.91,0,0,1-.16-.86,1.7,1.7,0,0,1,.08-.44,1.87,1.87,0,0,1,.2-.4,2.88,2.88,0,0,1,.26-.35l.16-.14a1.07,1.07,0,0,1,.16-.14,2.71,2.71,0,0,1,.35-.24l.18-.11.19-.09a7.25,7.25,0,0,1,1.55-.52,12.7,12.7,0,0,1,1.61-.22l1.6-.06,1.6,0,1.6.08c2.12.15,4.23.42,6.33.77s4.17.78,6.24,1.29,4.11,1.06,6.13,1.71,4,1.35,6,2.13c1,.38,2,.78,2.95,1.2l1.45.64Z"/><path class="cls-35" d="M335.69,459.77l-1.45-.57-1.44-.58-1.45-.56-1.46-.53q-2.94-1-5.92-1.89c-2-.56-4-1.08-6-1.51a55.13,55.13,0,0,0-6.11-1c-1-.11-2-.19-3.08-.2H308c-.25,0-.5,0-.75.05a6.9,6.9,0,0,0-1.45.29,2.89,2.89,0,0,0-1.2.71,1.25,1.25,0,0,0-.32,1.19,2.25,2.25,0,0,0,.27.62,3.37,3.37,0,0,0,.46.54,5.56,5.56,0,0,0,1.21.87,9.55,9.55,0,0,0,1.39.6l.36.12.37.1.75.2c1,.27,2,.56,3,.87s2,.62,3,1l1.48.5,1.47.52-3-.86-3-.82c-1-.26-2-.52-3-.76l-.76-.18-.38-.09-.39-.12a9.31,9.31,0,0,1-1.48-.59,6,6,0,0,1-1.33-.92,3.32,3.32,0,0,1-.55-.63,2.73,2.73,0,0,1-.37-.79,2,2,0,0,1,0-.91,1.94,1.94,0,0,1,.43-.8,2.94,2.94,0,0,1,.68-.54,3.68,3.68,0,0,1,.76-.34,6.84,6.84,0,0,1,1.59-.34c.26,0,.53,0,.8-.05h.79c1.05,0,2.09.08,3.13.18a66,66,0,0,1,12.21,2.67c2,.61,3.95,1.31,5.88,2.07S333.81,458.89,335.69,459.77Z"/><path class="cls-34" d="M593.11,460.54c10.33,16.65,35.44,51.33,45.39,68.28,11,18.69-1.92,28.44-14.18,26-8.58-1.71-23.13-18.49-25.27-21.83s-21-25.53-27.42-45.2c-3.83-11.83-5.9-37.81.11-40.17S589.15,454.14,593.11,460.54Z"/><path class="cls-36" d="M455.62,458.09l-4.06-11.38s50.37-4.32,62.94,14.24c0,0,34.8-16.94,62.48-10.86L572,460.56l-56.81,9.34Z"/><path class="cls-36" d="M527.48,462.47q-12.35-.62-24.71,0a249.41,249.41,0,0,0-58.72-9.77c4.62,30.42,9.47,60.52,14.09,90.94a200.31,200.31,0,0,1,47.15,12,195.53,195.53,0,0,1,19.67,0,200.31,200.31,0,0,1,47.15-12c4.62-30.42,9.45-60.45,14.07-90.87A249.18,249.18,0,0,0,527.48,462.47Z"/><path class="cls-36" d="M525,557.45a195.53,195.53,0,0,0-19.67,0l-2.52-93.14a242.45,242.45,0,0,1,24.71,0Z"/><path class="cls-36" d="M525,557.45a199.84,199.84,0,0,1,47.15-12L586,454.21a247.72,247.72,0,0,0-58.49,10.1Z"/><path class="cls-36" d="M458.14,545.47a199.84,199.84,0,0,1,47.15,12l-2.52-93.14a247.72,247.72,0,0,0-58.49-10.1Z"/><path class="cls-18" d="M560.53,450.43c-4.51,15.32,13.16,54,13.16,54l19.25,27.14c11.53-2.17,37.55-22,37.55-22s-20.43-31.06-29.64-42.77-19.57-25.93-33-24.46C566.22,442.49,561.22,448.1,560.53,450.43Z"/><path class="cls-37" d="M458.3,454.09l-4.05-11.38s50.37-4.32,62.93,14.24c0,0,34.8-16.93,62.49-10.85l-4.95,10.46-56.81,9.35Z"/><path class="cls-25" d="M530.16,458.47q-12.35-.62-24.71,0a249.32,249.32,0,0,0-58.72-9.77c4.62,30.42,9.47,60.52,14.09,90.94a200.31,200.31,0,0,1,47.15,12,195.53,195.53,0,0,1,19.67,0,200.39,200.39,0,0,1,47.16-12c4.61-30.42,9.45-60.45,14.07-90.87A249.26,249.26,0,0,0,530.16,458.47Z"/><path class="cls-25" d="M527.64,553.45a195.53,195.53,0,0,0-19.67,0l-2.52-93.14q12.36-.62,24.71,0Z"/><path class="cls-38" d="M527.64,553.45a199.9,199.9,0,0,1,47.16-12q6.91-45.64,13.85-91.27a247.9,247.9,0,0,0-58.49,10.1Z"/><path class="cls-38" d="M460.82,541.48a199.82,199.82,0,0,1,47.15,12l-2.52-93.14A247.73,247.73,0,0,0,447,450.21Q453.89,495.84,460.82,541.48Z"/><path class="cls-34" d="M534.3,544.62s60.44,20.29,86.6,15.6c36.23-6.5,15-32.54.53-33-8.58-.26-69.88-.32-83.42-.58C531.76,527,523.27,535.94,534.3,544.62Z"/><path class="cls-34" d="M543,546.14c-5.55,2.79-12.37.66-18.56.79-2.52.05-5.48-.13-6.81-2.14a7,7,0,0,1-.74-3.92c0-4.35,5.08-9.35,5.4-15,.23-3.95,4-9.51,6-8.78,5.54,2,18.37,9.25,18.76,12.35S547.71,543.8,543,546.14Z"/><path class="cls-34" d="M526,521.57c-1.87-3.71-5.09-6.7-9.29-11.78-2.8-3.38-.23-9,2.54-6.51,2.48,2.21,9.73,9.11,11,10.31s5.74,8.46,6,10.45S529,527.54,526,521.57Z"/><path class="cls-34" d="M522.36,529.08c-5.05-.38-8.34-.4-13.79-3.31-4.63-2.48-13.49-6.48-18.22-9-3.24-1.76.91-5.26,5.34-2.87,4.84,2.61,8.33,3.41,14.56,6,5,2.1,10.86,1.16,16.12,2.54C529.91,523.31,526,529.34,522.36,529.08Z"/><path class="cls-34" d="M522.92,534.73c-6.16.59-8,2.48-14.27,1.64-5.3-.71-9.54-1.55-15-2.3-3.72-.52-.74-4.84,3-4.32,5.55.77,4.51.33,11.36.59,5.56.21,10.69-2.63,16.17-3.16C527.89,526.83,526.62,534.37,522.92,534.73Z"/><path class="cls-34" d="M523.22,542.35a122,122,0,0,1-13.56.68,71,71,0,0,1-8.31-.5c-4.71-1.18-4.18-4.21-2-4.44a93,93,0,0,1,10.1-.13c5.56.18,9.54-2.63,15-3.16C528.19,534.45,526.92,542,523.22,542.35Z"/><path class="cls-34" d="M521.44,545.38c-1.72,1.88-6.35,4.27-6.35,4.27a92.37,92.37,0,0,1-11.22-2.24c-3.47-1.12-2.87-3.88.56-3.36s9.43.79,10.26-.06,3.08-3,3.82-3.78C520.36,538.18,523.3,543.35,521.44,545.38Z"/></g></svg>