<svg id="Layer_1" data-name="Layer 1" xmlns="http://www.w3.org/2000/svg" xmlns:xlink="http://www.w3.org/1999/xlink" viewBox="0 0 800 800"><defs><style>.cls-1{fill:none;}.cls-2{fill:#d1f6ff;}.cls-3{clip-path:url(#clip-path);}.cls-4{fill:#b0e2ea;}.cls-5{fill:#fdd1a2;}.cls-6{fill:#3aa2c7;}.cls-7{fill:#1592b0;}.cls-8{fill:#faad18;}.cls-9{fill:#deb78d;}.cls-10{fill:#30281c;}.cls-11{fill:#fff;}.cls-12{fill:#ffb47c;}.cls-13{fill:#3ac7be;}</style><clipPath id="clip-path"><circle class="cls-1" cx="407.14" cy="398.43" r="281.97"/></clipPath></defs><circle class="cls-2" cx="405.81" cy="396.43" r="281.97"/><g class="cls-3"><polygon class="cls-4" points="576.1 694.85 587.02 814.28 570.79 816.81 524.86 710.54 576.1 694.85"/><path class="cls-4" d="M443,431.4s39,299.58,54,322c6.26,9.4,15.42,10.93,26.21,8.83,2.06-.39,4.18-.92,6.35-1.56l29.91-11.46.13,0c4.84-1.94,9.74-3.77,14.62-5.28,30.72-9.52,28.34-35.39,20.06-70.65s-62.44-205.06-80.72-217C481.25,435.06,443,431.4,443,431.4Z"/><path class="cls-4" d="M497,552.14l26.21,210.12c2.06-.39,4.18-.92,6.35-1.56l29.91-11.46.13,0s-9.22-9.54-21.72-42.63S497,552.14,497,552.14Z"/><polygon class="cls-4" points="249.19 231.06 389.36 171.28 518.6 232.92 389.36 298.51 249.19 231.06"/><path class="cls-4" d="M271.87,299.75l2-2.65c-28.23-21.24-22.74-56.74-21.05-64.86a2.66,2.66,0,0,0-1.07-2.72h0a1.47,1.47,0,0,0-2.29.91C247.59,239.9,242.43,277.6,271.87,299.75Z"/><polygon class="cls-4" points="273.86 297.1 278.08 298.67 274.55 303.19 271.87 299.75 273.86 297.1"/><path class="cls-4" d="M278.08,298.67s5.23,3.79,7.07,2.63c0,0-1.71,5-4.27,5.5,0,0-4.74-1.59-6.33-3.61Z"/><path class="cls-4" d="M355,367.19s-1.39,43-6.89,62.25l-43.55,93.87L401,656.74l67.56-172.39-39.1-54s-11.8-57.64-5.61-79S355,367.19,355,367.19Z"/><path class="cls-4" d="M354.78,373.12s13,31.21,37.38,30.52,30-28.3,30-28.3Z"/><path class="cls-4" d="M340.21,347.86s-7.89-39.37-13.39-51.29-10.09-65.11,50.9-67.87c0,0,23.38,2.76,36.22-5,0,0,0,7.8-3.21,10.55,0,0,15.88-10,32.39,8.35s-5.79,87.48-4.41,102.62Z"/><path class="cls-4" d="M389.36,391.58c-17.69-.31-50.26-23.87-50.26-53V293c0-10.65,7.43-19.37,16.51-19.37h67.5c9.08,0,16.51,8.72,16.51,19.37V336C439.62,366.55,409.65,391.94,389.36,391.58Z"/><path class="cls-4" d="M339.1,317.32s.1-27.35,21.76-31.56,70.16,13.33,77-6.61-93.73-19.61-98.8-6.88S339.1,317.32,339.1,317.32Z"/><path class="cls-4" d="M353.46,427.09s34.21,7.68,34.21,7.68l34.58-8.33,8.82,53.07L392.26,611.62,349.81,453.31Z"/><polygon class="cls-4" points="354.74 444.73 381.92 465.02 390.81 450.44 399.06 465.02 428.01 439.81 422.3 433.22 390.63 441.55 356.42 440 354.74 444.73"/><path class="cls-4" d="M537.44,1089.67c-34.25,18-267.53,39.23-309.34-10.1-7.12-8.39,92.28-633.31,92.28-633.31s6.4-1.85,17.21-3.88c5.52-1,12.16-2.12,19.69-3,.08,2.34,16.19,103.83,38.1,143.4,0,0,24.85-54.62,25-142.83a10.66,10.66,0,0,0-.15-1.28c4.69.51,9.46,1.15,14.24,2,2,.34,4,.72,6.07,1.14a197.36,197.36,0,0,1,23.1,6.08S544.58,1085.93,537.44,1089.67Z"/><path class="cls-4" d="M422.25,426.44a308.84,308.84,0,0,0-68.78.78c0-.09,0-.13,0-.13S417.12,387.72,422.25,426.44Z"/><path class="cls-4" d="M373.59,359.36s21.17-2.12,31,.27c0,0-5.31,8.54-13.89,8.47S375.64,364.82,373.59,359.36Z"/><path class="cls-4" d="M322.57,251.9l1.26,20.61s47.5-31.74,125.41-2.59l-1.09-29.82a20.51,20.51,0,0,0-9.87-13.81c-14.61-8.41-48.83-24-102.89,2.11C327.81,232.06,323.07,243.5,322.57,251.9Z"/><path class="cls-4" d="M386.64,475.77a2.51,2.51,0,1,1,0,3.54A2.51,2.51,0,0,1,386.64,475.77Z"/><path class="cls-4" d="M386.64,502.75a2.51,2.51,0,1,1,0,3.55A2.53,2.53,0,0,1,386.64,502.75Z"/><path class="cls-4" d="M386.64,530.53a2.51,2.51,0,1,1,0,3.54A2.51,2.51,0,0,1,386.64,530.53Z"/><polygon class="cls-4" points="209.65 691.95 198.73 811.38 214.97 813.91 260.9 707.64 209.65 691.95"/><path class="cls-4" d="M342.72,428.5s-39,299.58-54,322c-6.27,9.39-15.42,10.93-26.21,8.83-2.06-.39-4.19-.93-6.35-1.56l-29.91-11.47-.13,0c-4.85-1.94-9.74-3.77-14.62-5.29-30.72-9.51-28.34-35.38-20.06-70.64s62.44-205.06,80.72-217C304.51,432.16,342.72,428.5,342.72,428.5Z"/><path class="cls-4" d="M288.76,549.24,262.55,759.36c-2.06-.39-4.19-.93-6.35-1.56l-29.91-11.47-.13,0s9.22-9.54,21.72-42.63S288.76,549.24,288.76,549.24Z"/><path class="cls-4" d="M368.13,332.12h0a4,4,0,0,1-4-4v-4.29a4,4,0,0,1,4-4h0a4,4,0,0,1,4,4v4.29A4,4,0,0,1,368.13,332.12Z"/><path class="cls-4" d="M411.72,333.56h0a4,4,0,0,1-4-4V325.3a4,4,0,0,1,4-4h0a4,4,0,0,1,4,4v4.28A4,4,0,0,1,411.72,333.56Z"/><path class="cls-4" d="M371,305.84c-13.52,3.53-22,1.3-10.54-2.71S378,304,371,305.84Z"/><path class="cls-4" d="M407.11,305.84c13.52,3.53,22,1.3,10.54-2.71S400.1,304,407.11,305.84Z"/><path class="cls-4" d="M396.15,340.86l-6.26-11.15-7.39,10.43c-1.84,2.59,2.49,3.07,2.49,3.07s-.21,2.55,4,3c4.27,0,4.33-2.59,4.33-2.59S397.72,343.63,396.15,340.86Z"/><path class="cls-4" d="M399.83,611.61C360.44,582.61,332,430.53,332,430.53c6-1.14,13.29-2.32,21.51-3.31.1,2.55,16.71,107.34,40.66,150.58,0,0,28.12-53.58,28.29-149.95a10.66,10.66,0,0,0-.17-1.41c5.13.56,10.34,1.26,15.57,2.16,2.2.38,4.41.79,6.62,1.26C444.51,511,399.83,611.61,399.83,611.61Z"/><polygon class="cls-4" points="352.36 406.25 335.53 427.67 380.05 458.08 390.6 435.36 352.36 406.25"/><polygon class="cls-4" points="429.54 406.25 390.6 435.36 401.77 458.08 440.09 426 429.54 406.25"/><polygon class="cls-5" points="595.74 685.22 606.66 804.65 590.43 807.18 544.49 700.91 595.74 685.22"/><path class="cls-5" d="M588.32,794.88s3.77,12.5,1.42,21.82c-1.57,6.21,8.08,14.74,18.76,26.53,1.07,1.19,3.07,0,2.84-1.6a11.51,11.51,0,0,0-.87-2.93c-1.93-4.5-7.47-12.28-7.47-12.28.44-1.75,11.82,4.39,18.24,8.64,3.72,2.47,14.52,14.13,17.4,12.39s-1.78-13-6.77-21.22-23-15.24-25.21-21.58S588.32,794.88,588.32,794.88Z"/><path class="cls-6" d="M462.68,421.77s39,299.58,54,322c6.26,9.4,15.42,10.93,26.21,8.83,2-.39,4.18-.92,6.34-1.56L579.1,739.6l.13,0c4.85-1.94,9.74-3.77,14.62-5.28,30.73-9.52,28.34-35.39,20.07-70.65s-62.45-205.06-80.73-217C500.88,425.43,462.68,421.77,462.68,421.77Z"/><path class="cls-7" d="M516.64,542.51l26.21,210.12c2-.39,4.18-.92,6.34-1.56L579.1,739.6l.13,0S570,730,557.51,696.93,516.64,542.51,516.64,542.51Z"/><polygon class="cls-7" points="268.82 221.43 409 161.65 538.24 223.29 409 288.88 268.82 221.43"/><path class="cls-8" d="M291.5,290.12l2-2.65c-28.23-21.24-22.75-56.74-21.05-64.86a2.66,2.66,0,0,0-1.07-2.72h0a1.47,1.47,0,0,0-2.29.91C267.23,230.27,262.06,268,291.5,290.12Z"/><polygon class="cls-8" points="293.5 287.47 297.72 289.04 294.19 293.56 291.5 290.12 293.5 287.47"/><path class="cls-8" d="M297.72,289s5.23,3.79,7.07,2.63c0,0-1.71,5-4.27,5.5,0,0-4.74-1.59-6.33-3.61Z"/><path class="cls-5" d="M374.65,357.56s-1.38,43-6.89,62.24l-43.55,93.88,96.37,133.43,67.57-172.39-39.1-54s-11.8-57.64-5.61-79S374.65,357.56,374.65,357.56Z"/><path class="cls-9" d="M374.42,363.49s13,31.21,37.38,30.52,30-28.3,30-28.3Z"/><path class="cls-10" d="M359.84,338.23s-7.88-39.37-13.39-51.29-10.08-65.11,50.9-67.87c0,0,23.39,2.76,36.23-5,0,0,0,7.8-3.21,10.55,0,0,15.88-10,32.39,8.35s-5.79,87.48-4.42,102.62Z"/><path class="cls-5" d="M409,382c-17.69-.31-50.26-23.87-50.26-53V283.38c0-10.65,7.43-19.37,16.51-19.37h67.5c9.08,0,16.51,8.72,16.51,19.37v42.95C459.26,356.92,429.29,382.31,409,382Z"/><path class="cls-10" d="M358.74,307.69s.1-27.36,21.76-31.56,70.16,13.33,77-6.62-93.73-19.6-98.8-6.87S358.74,307.69,358.74,307.69Z"/><path class="cls-11" d="M373.09,417.46l34.21,7.68,34.58-8.33,8.83,53.07L411.9,602,369.45,443.68Z"/><polygon class="cls-6" points="374.38 435.1 401.56 455.39 410.45 440.81 418.69 455.39 447.65 430.17 441.94 423.59 410.27 431.92 376.06 430.37 374.38 435.1"/><path class="cls-6" d="M557.08,1080c-34.26,18-267.53,39.23-309.34-10.1C240.62,1061.55,340,436.63,340,436.63s6.4-1.85,17.21-3.88c5.51-1,12.15-2.12,19.68-3,.09,2.34,16.19,103.83,38.11,143.4,0,0,24.84-54.62,25-142.83a9,9,0,0,0-.15-1.28c4.7.5,9.47,1.15,14.25,2q3,.51,6.07,1.14a197.36,197.36,0,0,1,23.1,6.08S564.22,1076.3,557.08,1080Z"/><path class="cls-5" d="M441.88,416.81a308.76,308.76,0,0,0-68.77.78.69.69,0,0,1,0-.13S436.75,378.09,441.88,416.81Z"/><path class="cls-11" d="M393.23,349.73s21.17-2.12,31,.27c0,0-5.31,8.54-13.9,8.47S395.27,355.19,393.23,349.73Z"/><path class="cls-6" d="M342.21,242.27l1.26,20.61s47.5-31.74,125.4-2.59l-1.08-29.82a20.51,20.51,0,0,0-9.87-13.81c-14.61-8.41-48.83-24-102.9,2.11C347.45,222.42,342.7,233.87,342.21,242.27Z"/><path class="cls-6" d="M406.28,466.14a2.5,2.5,0,1,1,0,3.54A2.5,2.5,0,0,1,406.28,466.14Z"/><path class="cls-6" d="M406.28,493.12a2.51,2.51,0,1,1,0,3.55A2.5,2.5,0,0,1,406.28,493.12Z"/><path class="cls-6" d="M406.28,520.9a2.5,2.5,0,1,1,0,3.54A2.5,2.5,0,0,1,406.28,520.9Z"/><polygon class="cls-5" points="229.29 682.32 218.37 801.75 234.6 804.28 280.54 698.01 229.29 682.32"/><path class="cls-5" d="M236.71,792s-3.77,12.5-1.41,21.81c1.57,6.21-8.09,14.75-18.77,26.54-1.07,1.19-3.07,0-2.84-1.6a11.51,11.51,0,0,1,.87-2.93c1.93-4.5,7.48-12.28,7.48-12.28-.45-1.75-11.83,4.39-18.24,8.64-3.73,2.47-14.53,14.13-17.41,12.39s1.78-13,6.77-21.22,23-15.24,25.21-21.58S236.71,792,236.71,792Z"/><path class="cls-6" d="M362.36,418.87s-39,299.58-54,322c-6.27,9.39-15.43,10.93-26.22,8.83-2.05-.39-4.18-.93-6.34-1.56L245.93,736.7l-.13,0c-4.85-1.94-9.74-3.77-14.62-5.29-30.73-9.51-28.34-35.38-20.07-70.64s62.45-205.06,80.73-217C324.15,422.53,362.36,418.87,362.36,418.87Z"/><path class="cls-7" d="M308.4,539.61,282.18,749.73c-2.05-.39-4.18-.93-6.34-1.56L245.93,736.7l-.13,0S255,727.12,267.52,694,308.4,539.61,308.4,539.61Z"/><path class="cls-10" d="M387.77,322.49h0a4,4,0,0,1-4-4v-4.29a4,4,0,0,1,4-4h0a4,4,0,0,1,4,4v4.29A4,4,0,0,1,387.77,322.49Z"/><path class="cls-10" d="M431.35,323.93h0a4,4,0,0,1-4-4v-4.28a4,4,0,0,1,4-4h0a4,4,0,0,1,4,4V320A4,4,0,0,1,431.35,323.93Z"/><path class="cls-10" d="M390.64,296.21c-13.53,3.53-22,1.3-10.54-2.71S397.65,294.38,390.64,296.21Z"/><path class="cls-10" d="M426.75,296.21c13.52,3.53,22,1.3,10.54-2.71S419.74,294.38,426.75,296.21Z"/><path class="cls-12" d="M415.79,331.23l-6.26-11.15-7.39,10.43c-1.85,2.59,2.48,3.06,2.48,3.06s-.21,2.56,4,3c4.28,0,4.34-2.59,4.34-2.59S417.35,334,415.79,331.23Z"/><path class="cls-13" d="M419.47,602C380.08,573,351.6,420.9,351.6,420.9c6-1.14,13.28-2.32,21.51-3.31.09,2.55,16.71,107.34,40.65,150.58,0,0,28.13-53.58,28.29-149.95a10.66,10.66,0,0,0-.16-1.41c5.13.56,10.34,1.26,15.56,2.16,2.21.38,4.42.79,6.63,1.26C464.14,501.39,419.47,602,419.47,602Z"/><polygon class="cls-11" points="372 396.62 355.17 418.04 399.69 448.45 410.24 425.73 372 396.62"/><polygon class="cls-11" points="449.18 396.62 410.24 425.73 421.4 448.45 459.73 416.37 449.18 396.62"/></g></svg>