<svg id="Layer_1" data-name="Layer 1" xmlns="http://www.w3.org/2000/svg" xmlns:xlink="http://www.w3.org/1999/xlink" viewBox="0 0 800 800"><defs><style>.cls-1,.cls-20,.cls-23,.cls-27{fill:none;}.cls-2{fill:#d1f6ff;}.cls-3{clip-path:url(#clip-path);}.cls-4,.cls-5,.cls-6,.cls-7{fill:#b0e2ea;}.cls-17,.cls-5{opacity:0.2;}.cls-21,.cls-6{opacity:0.5;}.cls-22,.cls-7{opacity:0.1;}.cls-8{fill:#75210e;}.cls-9{fill:#fdd1a2;}.cls-10{fill:#e1b78f;}.cls-11{fill:#7f2617;}.cls-12{fill:#f2f0f3;}.cls-13,.cls-22{fill:#fff;}.cls-14{fill:#30281c;}.cls-15{fill:#ffb47c;}.cls-16{fill:#e6fbfd;}.cls-17,.cls-18{fill:#33334e;}.cls-19{fill:#3aa2c7;}.cls-20,.cls-23{stroke:#1592b0;}.cls-20{stroke-linecap:round;stroke-width:2px;}.cls-20,.cls-23,.cls-27{stroke-miterlimit:10;}.cls-21{fill:#23233b;}.cls-23{stroke-width:4px;}.cls-24{fill:#1592b0;}.cls-25{fill:#faad18;}.cls-26{fill:#0097ab;}.cls-27{stroke:#de7f84;stroke-width:0.5px;}</style><clipPath id="clip-path"><circle class="cls-1" cx="393.42" cy="396.43" r="281.97"/></clipPath></defs><circle class="cls-2" cx="393.42" cy="396.43" r="281.97"/><g class="cls-3"><circle class="cls-4" cx="389.36" cy="211.63" r="35.38"/><polygon class="cls-4" points="393.77 427.52 328.24 424.06 338.93 381.8 343.47 363.88 385.67 366.23 391.72 412 393.77 427.52"/><path class="cls-4" d="M391.72,412c-14.48-1.76-36.45-8.28-52.79-30.19l4.54-17.92,42.2,2.35Z"/><path class="cls-4" d="M440.19,326.53a88.19,88.19,0,0,1-40.85,41,73.83,73.83,0,0,1-37.71,7.41,65.49,65.49,0,0,1-21.48-5.47,17.15,17.15,0,0,1-1.89-.82c-1.62-.76-3.19-1.62-4.72-2.51-20.26-11.73-34.36-33.86-37.38-59.7a91.35,91.35,0,0,1,2.12-32.62c6.18-25.22,22.68-45.53,43.62-55.66a68.47,68.47,0,0,1,35.25-6.85c32.24,2.33,54.29,19.39,64.62,43.4.29.62.51,1.22.76,1.82a62.57,62.57,0,0,1,2.09,6l0,0a7.74,7.74,0,0,1,.23.85,11.74,11.74,0,0,1,.41,1.35c.32,1,.56,2.08.81,3.19a.17.17,0,0,0,0,.09c.44,1.78.79,3.57,1.09,5.37a96.7,96.7,0,0,1,.82,25.27,80.56,80.56,0,0,1-7.84,27.89Z"/><path class="cls-4" d="M312.64,311.26c-12.26-13.59-25-12.33-27.6,6.36s17.14,30.72,30.53,23.12S312.64,311.26,312.64,311.26Z"/><path class="cls-4" d="M300.94,313.45c-6.85-.21-7.24,20.19,7.49,18.61,0,0-3.11-4.44-3.35-6.33-.21-1.61,1.23-6.34,1.23-6.34Z"/><path class="cls-4" d="M424.37,319.83c11.3-14.4,24.13-14,28,4.44s-15,31.83-28.86,25.18S424.37,319.83,424.37,319.83Z"/><path class="cls-4" d="M435.85,321.39c6.8-.88,9.22,19.37-5.59,19.28,0,0,2.34-5,2.65-6.93.45-2.72-1.8-5.9-1.8-5.9Z"/><path class="cls-4" d="M409.78,365.26v0c-.54.92-1.1,1.8-1.69,2.68v0c-8.12,12.13-20.23,20.5-38.16,20.86-24,.51-38.54-10-47-25.15a65.76,65.76,0,0,1-3.87-8.22c-14.91-37.88-1.53-94.48-1.53-94.48L422,269S430.59,330.34,409.78,365.26Z"/><path class="cls-4" d="M317.66,252.9s-.48,28.84,57.94,36l-5.78-14.31s15.39,28.48,69,22.25l-18-51.65-81.48-6.26Z"/><path class="cls-4" d="M414.76,286.21c-38.62,4.49-49.7-16-49.7-16l4.16,10.3c-42.06-5.13-41.71-25.89-41.71-25.89"/><path class="cls-4" d="M417.54,316.74a20.49,20.49,0,0,0-.46-3.14,22.53,22.53,0,0,0-1.21-3.81,22,22,0,0,0-6.62-8.65,21.83,21.83,0,0,0-27.08,0,22,22,0,0,0-6.61,8.65,21.74,21.74,0,0,0-1,2.78,9.79,9.79,0,0,0-5.9-2.49l-.09,0a11.82,11.82,0,0,0-6.89,2.12,21.16,21.16,0,0,0-.52-2.39,21.53,21.53,0,0,0-4.66-8.65,21.9,21.9,0,0,0-11.59-6.94,20.6,20.6,0,0,0-3.78-.52A21.93,21.93,0,0,0,319,309.79a20.6,20.6,0,0,0-.74,4.67,19.26,19.26,0,0,0,0,2.28,21.42,21.42,0,0,0,2.67,9.33A21.82,21.82,0,0,0,353.25,333a22.15,22.15,0,0,0,6-6.92,21.84,21.84,0,0,0,2.61-8.62c.2-.18.46-.45.78-.71,1.28-1.11,3.44-2.59,5.77-2.48h0a6.47,6.47,0,0,1,4.4,2.47,10.12,10.12,0,0,1,1,1.26,21.84,21.84,0,0,0,5.66,15,21.83,21.83,0,0,0,32.42,0,21.38,21.38,0,0,0,4.24-6.92,20.44,20.44,0,0,0,1.11-4.11,19.07,19.07,0,0,0,.3-2.56A23.53,23.53,0,0,0,417.54,316.74Zm-63.24,9.33A17.83,17.83,0,0,1,343,333a18,18,0,0,1-3.76.22,16.53,16.53,0,0,1-2-.22,17.76,17.76,0,0,1-14.77-16.25,18,18,0,0,1,0-2.08,17.72,17.72,0,0,1,7.43-13.52,17.67,17.67,0,0,1,27,8.65,17.24,17.24,0,0,1,.95,6.63c0,.11,0,.21,0,.32A17.7,17.7,0,0,1,354.3,326.07ZM405.52,333a17.43,17.43,0,0,1-10.7,3,17.68,17.68,0,0,1-15-9.9,17.4,17.4,0,0,1-1.78-8.63l0-.7a17.55,17.55,0,0,1,2.14-6.95,17.78,17.78,0,0,1,11.3-8.65,17,17,0,0,1,5.07-.49,17.88,17.88,0,0,1,3.29.49,17.71,17.71,0,0,1,13.44,15.6,15.5,15.5,0,0,1,.05,2.46,17.33,17.33,0,0,1-1.78,6.87A17.74,17.74,0,0,1,405.52,333Z"/><path class="cls-4" d="M386.63,350.44a15.76,15.76,0,0,1-1.86,4.39c-.34.52-.69,1.07-1.12,1.61-.18.23-.4.51-.64.76s-.23.24-.38.39c-2.85,3.12-7.53,6-15.38,5.8l0,0-.57-.05,0-.06c-7.32-.48-11.72-3.45-14.3-6.63a.39.39,0,0,1-.08-.1c-.22-.25-.42-.53-.61-.79v0a17,17,0,0,1-1.57-2.63,17.72,17.72,0,0,1-1.46-4.56Z"/><path class="cls-4" d="M340.59,321.41h0a4.86,4.86,0,0,1-4.84-4.84v-5.21a4.86,4.86,0,0,1,4.84-4.84h0a4.85,4.85,0,0,1,4.83,4.84v5.21A4.85,4.85,0,0,1,340.59,321.41Z"/><path class="cls-4" d="M393.65,323.16h0a4.86,4.86,0,0,1-4.84-4.84v-5.21a4.86,4.86,0,0,1,4.84-4.84h0a4.85,4.85,0,0,1,4.83,4.84v5.21A4.85,4.85,0,0,1,393.65,323.16Z"/><path class="cls-4" d="M374.34,371.37c.14,1.72-2.92,3.38-6.84,3.7s-7.21-.82-7.35-2.54,2.92-3.37,6.84-3.69S374.2,369.65,374.34,371.37Z"/><path class="cls-4" d="M344.09,289.42c-16.47,4.3-26.79,1.58-12.84-3.31S352.62,287.19,344.09,289.42Z"/><path class="cls-4" d="M374.7,332l-7.62-13.56-9,12.69c-2.25,3.16,3,3.73,3,3.73s-.26,3.11,4.92,3.68c5.2,0,5.27-3.15,5.27-3.15S376.6,335.41,374.7,332Z"/><path class="cls-4" d="M550.7,595.68c0,.61,0,1.22,0,1.81,0,.26,0,.51,0,.76,0,.67-.07,1.35-.14,2,0,.46-.08.93-.14,1.38v0c0,.31-.08.62-.13.92a4.85,4.85,0,0,1-.08.55c-.06.39-.11.76-.18,1.12s-.1.53-.16.79-.14.69-.22,1-.22.92-.34,1.38a.61.61,0,0,1,0,.18,5.12,5.12,0,0,1-.19.67c-.14.5-.28,1-.45,1.45s-.4,1.19-.62,1.75-.45,1.13-.7,1.67-.5,1.09-.78,1.61-.47.9-.72,1.34-.66,1.14-1,1.68-.64,1-1,1.42-.67.92-1,1.38-.63.78-1,1.15a40.12,40.12,0,0,1-7.65,6.79,46.2,46.2,0,0,1-4.3,2.63c-.49.27-1,.52-1.5.78l-1.51.74c-1,.48-2.06.93-3.12,1.34l-1.59.61q-1.7.64-3.42,1.17c-.48.15-.95.29-1.44.42-2,.6-4.08,1.12-6.13,1.54h0c-1.32.3-2.63.55-4,.77H507c-1.17.2-2.33.38-3.47.53-.87.11-1.73.22-2.57.3-1.25.15-2.47.26-3.67.36h-.21l-2.36.17c-1.42.08-2.79.14-4.12.18-.47,0-.93,0-1.4,0a122.93,122.93,0,0,1-15.26-.58c5.68,12,7.32,20.37,7.05,26.11,0,.28,0,.56,0,.83s-.08.78-.13,1.15l-.05.33c0,.28-.09.56-.14.83s-.15.73-.25,1.07a7.3,7.3,0,0,1-.28,1,13.51,13.51,0,0,1-1.09,2.5,9.1,9.1,0,0,1-.54.89,10.82,10.82,0,0,1-1.35,1.62c-.17.17-.36.34-.53.48a4.72,4.72,0,0,1-.64.52l-.36.25a5.39,5.39,0,0,1-.7.42l-.29.15-.05,0-.51.21a.16.16,0,0,0-.1,0c12.18,27.19,4.26,36,4.26,36,.92,3.6,1.79,7.44,2.62,11.49.13.58.23,1.16.36,1.75,1.29,6.4,2.5,13.29,3.62,20.54.19,1.19.37,2.39.54,3.59.07.42.13.84.19,1.26.2,1.32.39,2.64.58,4,.7,5,1.37,10.1,2,15.31.14,1.07.26,2.15.39,3.24.17,1.42.34,2.85.49,4.29.21,1.68.39,3.38.58,5.08.33,3,.64,6,.95,9.07.13,1.2.24,2.4.36,3.6.16,1.48.3,3,.44,4.46.28,3,.54,6,.81,8.93.17,1.77.33,3.54.47,5.3.23,2.68.45,5.37.67,8q.72,8.85,1.32,17.46l0,.33,0,.71c.09,1.13.17,2.25.25,3.37.09,1.38.18,2.72.26,4.06.06.7.11,1.39.14,2.09.08,1,.14,1.92.21,2.88s.14,2.22.2,3.31c.17,2.72.34,5.38.5,8,.2,3.29.37,6.49.54,9.59.11,1.87.21,3.72.3,5.51l.09,1.78c.44,8.28.8,15.77,1.06,22.13,0,.91.08,1.8.11,2.67.08,1.73.14,3.37.21,4.9.07,1.92.14,3.66.2,5.26,0,1.26.09,2.43.12,3.47v0c0,.78.07,1.5.08,2.14a1.14,1.14,0,0,1,0,.26c0,.33,0,.64,0,.92v0c0,.47,0,.89,0,1.25,0,.2,0,.41,0,.59a3.23,3.23,0,0,1,0,.44c0,.25,0,.45,0,.59s0,.27,0,.27H466.64l-201.17-.5c0-.08,0-.14,0-.22a.7.7,0,0,0,0-.14l-.33-1.59c0-.14-.06-.3-.09-.47-.44-2.1-1.1-5.4-1.94-9.87-.08-.35-.14-.69-.2-1.05-.42-2.15-.88-4.57-1.36-7.24l-.34-1.81q-.57-3.07-1.19-6.61c-.09-.53-.18-1.06-.29-1.61-.44-2.48-.91-5.1-1.39-7.89l-.53-3.12c-.06-.36-.13-.7-.19-1.06-.16-.94-.31-1.89-.48-2.85-1.13-6.65-2.36-14-3.67-22.22-.23-1.45-.47-2.91-.7-4.41q-1-6.63-2.17-13.85v0c-.37-2.46-.76-5-1.15-7.55q-.49-3.21-1-6.54c-.32-2.21-.67-4.47-1-6.78-9.81-66.28-3-91-1.54-95.33l.26-.68c-3.81-3.51-2.21-11.11.62-18.33v0a112.49,112.49,0,0,1,8.58-16.66c-.45-.42-.88-.84-1.31-1.26l-.18-.19-.58-.62-.42-.47a31.65,31.65,0,0,1-2.23-2.79,3.41,3.41,0,0,1-.3-.44,8.65,8.65,0,0,1-.51-.78c-.13-.19-.25-.39-.36-.58s-.17-.29-.27-.45c-.22-.37-.4-.75-.61-1.12a.69.69,0,0,0-.06-.13c-.15-.31-.31-.61-.44-.92l-.1-.22s0,0,0-.07a.35.35,0,0,1,0-.08c-.09-.24-.2-.47-.28-.7s-.15-.38-.22-.57,0-.07,0-.12c-.11-.33-.22-.64-.31-1l-.32-1.06-.09-.41c-.08-.29-.14-.59-.19-.87s-.14-.77-.2-1.14-.09-.75-.14-1.12a19.06,19.06,0,0,1-.06-3.19v-.29q0-.57.09-1.08c0-.05,0-.09,0-.14,0-.37.09-.75.15-1.11v0q.09-.57.21-1.08c.07-.37.15-.72.23-1.06.17-.67.36-1.3.56-1.87.09-.3.2-.56.3-.83.2-.53.4-1,.57-1.4s.36-.77.52-1c.3-.56.5-.87.5-.87-1.5-.11-3.12-.27-4.82-.49l-1.11-.14-.58-.09-.39-.06h-.07l-.47-.08-1.36-.23c-.45-.1-.9-.17-1.37-.28-1.05-.22-2.12-.47-3.2-.77-.36-.09-.73-.2-1.11-.31-1-.28-1.9-.59-2.85-1-.5-.19-1-.38-1.5-.59l-1.08-.46c-.67-.29-1.32-.62-2-1l-1.41-.76c-.5-.28-1-.56-1.46-.88s-.95-.61-1.42-.92-1-.7-1.48-1.07-1-.75-1.42-1.14a9,9,0,0,1-.8-.69c-.47-.4-.94-.84-1.39-1.29s-.9-.91-1.34-1.39c-.22-.22-.42-.45-.64-.7s-.42-.49-.62-.72c-.41-.5-.81-1-1.22-1.55-.2-.26-.39-.53-.59-.81-.41-.54-.8-1.1-1.16-1.68-.18-.28-.36-.55-.53-.83-.39-.62-.76-1.26-1.12-1.92-.09-.15-.19-.32-.27-.48-.28-.48-.53-1-.78-1.5-.17-.33-.34-.68-.49-1s-.33-.7-.49-1.06c-.33-.72-.64-1.45-.93-2.21-.14-.38-.29-.77-.41-1.19s-.22-.78-.31-1.2a35.44,35.44,0,0,1-.66-4.27c-.06-.61-.11-1.27-.15-1.92l0-.75a5.49,5.49,0,0,1,0-.58C206,618.78,206,617,206,615c0-.67,0-1.36,0-2s0-1.09.05-1.65a2.62,2.62,0,0,1,0-.28c0-.47,0-.94.07-1.44s0-.87.06-1.31.05-.85.08-1.29c.11-1.81.25-3.7.42-5.65.06-.73.12-1.48.2-2.23s.17-1.84.28-2.77.2-1.89.31-2.87c.1-.82.19-1.63.28-2.45.15-1.16.3-2.33.46-3.5s.29-2.24.45-3.38c.81-5.7,1.78-11.69,2.89-17.88q1-5.64,2.18-11.47c.3-1.41.58-2.87.89-4.32.15-.76.31-1.53.48-2.29s.31-1.5.49-2.26c.12-.55.23-1.08.35-1.61.25-1.15.52-2.32.78-3.48.35-1.56.71-3.1,1.08-4.66s.73-3.1,1.11-4.66.73-3,1.11-4.44c.54-2.15,1.1-4.3,1.66-6.45l.44-1.64c.58-2.17,1.17-4.34,1.78-6.47q2-7.26,4.24-14.29c.42-1.33.85-2.66,1.28-4a1.8,1.8,0,0,1,.06-.22c.46-1.39.91-2.76,1.38-4.12.18-.57.39-1.15.57-1.71l.61-1.75c.39-1.12.78-2.21,1.17-3.32q2.13-6,4.39-11.53c.81-2,1.62-3.93,2.45-5.82.18-.43.37-.87.56-1.29q1.54-3.5,3.1-6.73c.14-.28.28-.54.41-.82.29-.61.6-1.2.9-1.8q1.13-2.22,2.28-4.3,2.42-4.38,4.87-8c.15-.21.29-.43.43-.64h0c.51-.74,1-1.48,1.56-2.18a49.72,49.72,0,0,1,3.93-4.74l.26-.3.61-.62a28.31,28.31,0,0,1,5.49-4.4c.36-.22.71-.41,1.06-.59.78-.41,1.58-.8,2.39-1.17.23-.13.47-.24.7-.35l.27-.12,1-.44.33-.14,0,0,.84-.36a2.28,2.28,0,0,1,.36-.15s0,0,0,0c1.7-.74,3.43-1.44,5.22-2.09h0a1.85,1.85,0,0,1,.29-.13c1.14-.42,2.3-.83,3.47-1.22l1.92-.64,2.77-.85c.92-.28,1.86-.57,2.81-.83s1.89-.53,2.84-.78c.47-.14,1-.27,1.42-.39s1-.25,1.45-.36c1.08-.26,2.15-.53,3.24-.78l2.56-.59c3.4-.78,6.85-1.47,10.25-2.09a1.25,1.25,0,0,1,.19,0l.48-.08c1.41-.27,2.81-.5,4.2-.73s2.51-.41,3.74-.61l.09,0c4.37-.67,8.62-1.23,12.67-1.7l2.42-.28,2.62-.28,4-.41h.23c.74-.08,1.45-.14,2.17-.2,2.12-.19,4.15-.36,6-.5h.11l5.4-.38c.39,0,.76,0,1.13-.06l1.21-.06.68-.05c4.76-.23,7.57-.3,7.57-.3s.9,0,2.81-.12l.45,0,1-.06,2.47-.19c1.76-.14,3.9-.34,6.42-.63h0c1.89-.2,4-.45,6.32-.73,1.23-.15,2.54-.33,3.9-.51l2.95-.41h0l1.66-.25c.71-.09,1.42-.2,2.16-.31l2.46-.38,1.61-.24c1-.16,2.1-.33,3.2-.52l2.68-.44c1.48-.25,3-.5,4.55-.78.94-.14,1.88-.31,2.84-.48a.42.42,0,0,1,.13,0l.23,0c.25,0,.49-.08.74-.12l2.57-.47c7.24-1.31,15.3-2.9,24.24-4.77a34.85,34.85,0,0,1,7.25-.77c.6,0,1.19,0,1.78.06a1,1,0,0,1,.24,0h0l.25,0c.45,0,.92.08,1.37.14a20.22,20.22,0,0,1,2.19.3c.26,0,.53.09.79.15a24,24,0,0,1,2.95.74c.28.07.55.15.83.25.54.15,1.08.34,1.62.54s1,.38,1.5.58a.33.33,0,0,1,.12.05l.72.32a.46.46,0,0,1,.16.07,9.37,9.37,0,0,1,.92.42.45.45,0,0,1,.12.06l1,.48c1.18.6,2.39,1.28,3.56,2,.43.25.87.53,1.29.83s1,.68,1.53,1.06c.69.48,1.36,1,2,1.54l.72.56.58.49c.39.32.78.67,1.18,1s1.06.94,1.59,1.44a.05.05,0,0,1,0,0c.86.78,1.7,1.59,2.53,2.45.39.39.78.8,1.15,1.2a2.4,2.4,0,0,1,.22.24c.38.39.75.79,1.12,1.21,1.05,1.13,2.06,2.31,3.06,3.53s2.25,2.79,3.36,4.26c.54.72,1.07,1.46,1.6,2.2.06.09.13.17.19.25l.15.22q2.93,4.11,5.73,8.67,2.08,3.35,4.07,6.92c.05.08.09.18.14.25.56,1,1.12,2,1.67,3,.67,1.25,1.34,2.51,2,3.81h0s0,.05.05.08c.26.5.51,1,.78,1.5.16.31.33.64.48,1,1,1.89,1.91,3.84,2.84,5.79l.08.17q1.51,3.2,3,6.48,1.22,2.69,2.38,5.43c2.89,6.7,5.65,13.65,8.29,20.73.62,1.62,1.21,3.27,1.8,4.91.41,1.09.8,2.2,1.19,3.29.78,2.2,1.56,4.42,2.32,6.63,1.14,3.31,2.27,6.63,3.34,10,.72,2.25,1.45,4.5,2.16,6.74.35,1.11.7,2.23,1.06,3.34.68,2.22,1.37,4.43,2,6.65,1.68,5.53,3.31,11,4.84,16.41.31,1.07.62,2.15.92,3.23,1.45,5.1,2.83,10.12,4.16,15,.31,1.15.62,2.31.94,3.44.6,2.28,1.2,4.53,1.79,6.73.28,1.07.55,2.12.78,3.15.47,2,.84,3.94,1.12,5.82.11.62.19,1.24.27,1.85.14,1,.25,2,.31,3C550.64,592.3,550.7,594,550.7,595.68Z"/><path class="cls-5" d="M474,678c-32.65,18.81-193.87,42.72-227.22,28.19h0a110.63,110.63,0,0,1,8.58-16.67,29.26,29.26,0,0,1-8-11.51Z"/><path class="cls-4" d="M499.07,927.88H466.64l-201.17-.5c0-.08,0-.14,0-.22a.7.7,0,0,0,0-.14l-.33-1.59c0-.14-.06-.3-.09-.47-.44-2.1-1.1-5.4-1.94-9.87-.08-.35-.14-.69-.2-1.05-.42-2.15-.88-4.57-1.36-7.24l-.34-1.81q-.57-3.07-1.19-6.61c-.09-.53-.18-1.06-.29-1.61-.44-2.48-.91-5.1-1.39-7.89l-.53-3.12c-.06-.36-.13-.7-.19-1.06-.16-.94-.31-1.89-.48-2.85-1.13-6.65-2.36-14-3.67-22.22-.23-1.45-.47-2.91-.7-4.41q-1-6.63-2.17-13.85v0c-.37-2.46-.76-5-1.15-7.55q-.49-3.21-1-6.54c-.32-2.21-.67-4.47-1-6.78-9.81-66.28-3-91-1.54-95.33l.26-.68c19.08,13.26,37.31,18.28,53.58,18.78,39.77,1.18,58.58-26.9,58.58-26.9s35.19,40.33,91.1,15.18c3.21-1.45,6.49-3.1,9.82-5a172.76,172.76,0,0,0,19-12.62c.92,3.6,1.79,7.44,2.62,11.49.13.58.23,1.16.36,1.75,1.29,6.4,2.5,13.29,3.62,20.54.19,1.19.37,2.39.54,3.59.07.42.13.84.19,1.26.2,1.32.39,2.64.58,4,.7,5,1.37,10.1,2,15.31.14,1.07.26,2.15.39,3.24.17,1.42.34,2.85.49,4.29.21,1.68.39,3.38.58,5.08.33,3,.64,6,.95,9.07.13,1.2.24,2.4.36,3.6.16,1.48.3,3,.44,4.46l.42,4.46c.14,1.5.27,3,.39,4.47.17,1.77.33,3.54.47,5.3.23,2.68.45,5.37.67,8q.72,8.85,1.32,17.46l0,.33c.09,1.37.18,2.74.28,4.08s.18,2.72.26,4.06c.06.7.11,1.39.14,2.09.08,1,.14,1.92.21,2.88s.14,2.22.2,3.31c.19,2.73.34,5.4.5,8,.2,3.29.37,6.49.54,9.59.11,1.87.21,3.72.3,5.51l.09,1.78c.44,8.28.8,15.77,1.06,22.13,0,.91.08,1.8.11,2.67.08,1.73.14,3.37.21,4.9.07,1.92.14,3.66.2,5.26,0,1.26.09,2.43.12,3.47v0c0,.78.07,1.5.08,2.14a1.14,1.14,0,0,1,0,.26c0,.33,0,.64,0,.92v0c0,.46,0,.88,0,1.25,0,.2,0,.41,0,.59a3.23,3.23,0,0,1,0,.44c0,.25,0,.45,0,.59S499.07,927.88,499.07,927.88Z"/><path class="cls-4" d="M517.25,636.21c-20.68,6-43.3,3.32-43.3,3.32,13.93,29.52,3.47,36.8.65,38.15l-.06,0-.51.22-.08,0c-14.39,5.9-34.56,11.19-57.29,15.16-53.76,9.39-121.83,11.37-161.35-3.65-16.44-15.23-6.16-31.07-6.16-31.07-2.11-.16-4.46-.39-7-.79A53.77,53.77,0,0,1,231.83,655c-9.13-3.38-18.46-10.21-24.14-24.64-3.4-8.6-1.51-34,3.9-64.1,9.86-54.92,31.47-125.32,54-136.91a102.09,102.09,0,0,1,11.46-5,175.26,175.26,0,0,1,22.47-6.46c3.48-.77,7-1.47,10.44-2.11,2.83-.53,5.65-1,8.43-1.42h.09a391.67,391.67,0,0,1,46.28-4.24S380,410,416,403.39q10.83-2,24.23-4.78c47.67-10,80.43,80.69,100.9,153,2.48,8.73,4.77,17.19,6.89,25.16C558,614.4,538.67,630,517.25,636.21Z"/><path class="cls-4" d="M412.43,404c0-.07-3.37-14.48-13.89-11.91s-35.78,17.42-35.78,17.42-29.43-9-38-8.39S314.63,415,314.63,415h0l-4.68.79C331.69,469,404.46,477,416,403.39Z"/><polyline class="cls-4" points="353.05 441.33 364.01 415.36 382.97 437.83"/><path class="cls-6" d="M499.07,927.88H466.64l-201.17-.5c0-.08,0-.14,0-.22a.7.7,0,0,0,0-.14l-.33-1.59c0-.14-.06-.3-.09-.47-.44-2.1-1.1-5.4-1.94-9.87-.08-.35-.14-.69-.2-1.05-.42-2.15-.88-4.57-1.36-7.24l-.34-1.81q-.57-3.07-1.19-6.61c-.09-.53-.18-1.06-.29-1.61-.44-2.48-.91-5.1-1.39-7.89l-.53-3.12c-.06-.36-.13-.7-.19-1.06-.16-.94-.31-1.89-.48-2.85-1.13-6.65-2.36-14-3.67-22.22-.23-1.45-.47-2.91-.7-4.41q-1-6.63-2.17-13.85v0c-.37-2.46-.76-5-1.15-7.55q-.49-3.21-1-6.54c-.32-2.21-.67-4.47-1-6.78-9.81-66.28-3-91-1.54-95.33l.26-.68c19.08,13.26,37.31,18.28,53.58,18.78-17.08,100,105.59,154.32,166.49,174.86,13.75,4.65,24.34,7.57,29.47,8.91C497.87,927.6,499.07,927.88,499.07,927.88Z"/><path class="cls-7" d="M498,906.4c-2.59-35.89-11.1-110.95-38.79-179.88a171.17,171.17,0,0,0,19-12.61c8.09,31.85,13.24,83,16.4,127.38l0,.33Z"/><path class="cls-4" d="M319,452.54s48.38,49.58,96.93-5.22"/><path class="cls-4" d="M286.78,538l-6,33.2s9.08-2.69,12.07,2.43,0,11.93,0,11.93"/><path class="cls-4" d="M378.35,647.43s-43.36,17.18-129.2,11"/><path class="cls-4" d="M279.3,550.54c-.62,7.9,7,7.21,7,7.21-6.45,8.77,3.64,11.83,3.64,11.83-2,9.63,10.14,9.6,10.14,9.6-3.4,14.31,38.24,9.26,38.24,9.26l22.3,6.95c1.51-11.47,5.94-24.34,9.69-33.72-2.15-.52-4.34-1-6.57-1.59-26.82-6.56-40.86-29-40.86-29l-4.91-5.75a3.23,3.23,0,0,0-5.66,2.49,135.23,135.23,0,0,0,3.34,16.72C308.1,546.54,279.89,542.64,279.3,550.54Z"/><path class="cls-4" d="M466.34,639c.38,7.57-8.16,6.91-8.16,6.91-1.61,9.7-12.93,5.26-12.93,5.26-2,14.56-39-5.26-39-5.26L383,644.3c2.22-9,3-19.5,3.19-28.52C400.78,624.68,426.52,635.87,466.34,639Z"/><path class="cls-4" d="M386.14,615.78s-23.44-7-25.56-20.39"/><path class="cls-4" d="M416.66,693.11c-53.76,9.39-121.83,11.37-161.35-3.65-16.44-15.23-6.16-31.07-6.16-31.07-2.11-.16-4.46-.39-7-.79l52,2.06L341.38,656C341.08,689.43,414.33,693,416.66,693.11Z"/><path class="cls-4" d="M388.18,552.45c-24.48,7.63,36.52,41.73,70.79,42.94s47.81-7.61,8-30.57S388.18,552.45,388.18,552.45Z"/><rect class="cls-4" x="294.97" y="391.07" width="27.2" height="183.2" transform="translate(-239.57 316.15) rotate(-40.51)"/><rect class="cls-4" x="260.13" y="414.79" width="8.31" height="3.04" transform="translate(-207.08 271.48) rotate(-40.51)"/><rect class="cls-4" x="267.01" y="422.84" width="8.31" height="3.04" transform="translate(-210.66 277.87) rotate(-40.51)"/><rect class="cls-4" x="273.88" y="430.89" width="8.31" height="3.04" transform="translate(-214.24 284.27) rotate(-40.51)"/><rect class="cls-4" x="280.76" y="438.95" width="8.31" height="3.04" transform="translate(-217.82 290.68) rotate(-40.51)"/><rect class="cls-4" x="287.64" y="447" width="8.31" height="3.04" transform="translate(-221.41 297.08) rotate(-40.51)"/><rect class="cls-4" x="294.52" y="455.05" width="8.31" height="3.04" transform="translate(-224.99 303.48) rotate(-40.51)"/><rect class="cls-4" x="301.4" y="463.1" width="8.31" height="3.04" transform="translate(-228.57 309.87) rotate(-40.51)"/><rect class="cls-4" x="308.28" y="471.15" width="8.31" height="3.04" transform="translate(-232.15 316.27) rotate(-40.51)"/><rect class="cls-4" x="315.16" y="479.2" width="8.31" height="3.04" transform="translate(-235.73 322.67) rotate(-40.51)"/><rect class="cls-4" x="322.04" y="487.25" width="8.31" height="3.04" transform="translate(-239.31 329.06) rotate(-40.51)"/><rect class="cls-4" x="328.92" y="495.3" width="8.31" height="3.04" transform="translate(-242.89 335.46) rotate(-40.51)"/><rect class="cls-4" x="335.8" y="503.36" width="8.31" height="3.04" transform="translate(-246.47 341.86) rotate(-40.51)"/><rect class="cls-4" x="342.68" y="511.41" width="8.31" height="3.04" transform="translate(-250.05 348.26) rotate(-40.51)"/><rect class="cls-4" x="349.56" y="519.46" width="8.31" height="3.04" transform="translate(-253.63 354.67) rotate(-40.51)"/><rect class="cls-4" x="356.44" y="527.51" width="8.31" height="3.04" transform="translate(-257.22 361.07) rotate(-40.51)"/><rect class="cls-4" x="363.31" y="535.56" width="8.31" height="3.04" transform="translate(-260.79 367.46) rotate(-40.51)"/><path class="cls-4" d="M401.53,550.45c-7.59.22-14.77,1.49-20.79,4.32l-.61.3c-.2.09-.4.2-.6.31a28.4,28.4,0,0,0-8.91,7l-.35-.81c-.32-.09-.66-.17-1-.24L363.71,560a61.29,61.29,0,0,1-9.29-3.06l-.6-.25c-.21-.08-.41-.18-.61-.27a68.16,68.16,0,0,1-10.07-5.52A74.17,74.17,0,0,1,322.84,531l-4.91-5.75a3.23,3.23,0,0,0-5.66,2.49,134.31,134.31,0,0,0,3.35,16.72,25.83,25.83,0,0,1-5.06.6h-.71l-18.21-38.55.58-.27,63.26-29.89,9-4.26,2.91-1.39.72-.33.7-.33,6.06-2.87,15.84,33.51L414.46,551A97.29,97.29,0,0,0,401.53,550.45Z"/><path class="cls-4" d="M401.53,550.45c-7.59.22-14.77,1.49-20.79,4.32l-.61.3c-.2.09-.4.2-.6.31a28.4,28.4,0,0,0-8.91,7l-.35-.81c-.32-.09-.66-.17-1-.24L363.71,560a61.29,61.29,0,0,1-9.29-3.06l-.6-.25c-.21-.08-.41-.18-.61-.27a68.16,68.16,0,0,1-10.07-5.52A74.17,74.17,0,0,1,322.84,531l-4.91-5.75a3.23,3.23,0,0,0-5.66,2.49,134.31,134.31,0,0,0,3.35,16.72,25.83,25.83,0,0,1-5.06.6h-.71l-.69,0c-3.52.09-7.76,0-12,.1l-16-33.77,9.81-4.64.58-.27.58-.27,63.26-29.89,9-4.26,2,4.2.49,1,.47,1,11.21,23.7h0Z"/><path class="cls-4" d="M310.56,545.07h-.71l-.69,0-18.1-38.31.58-.27.58-.27Z"/><path class="cls-4" d="M231.83,655c-9.13-3.38-18.46-10.21-24.14-24.64-3.4-8.6-1.51-34,3.9-64.1,28.08,2.71,8.13,34.86,24.92,47.71C253.58,627,251,647.68,231.83,655Z"/><line class="cls-4" x1="286.26" y1="557.75" x2="296.52" y2="556.97"/><line class="cls-4" x1="289.9" y1="569.58" x2="298.72" y2="568.69"/><line class="cls-4" x1="458.18" y1="645.93" x2="452.49" y2="644.91"/><line class="cls-4" x1="445.25" y1="651.19" x2="439.44" y2="650.01"/><path class="cls-4" d="M450.07,443.55s-13.11,14,3.49,48.91S492,558,492,558"/><rect class="cls-4" x="414.1" y="209.62" width="16.22" height="5.08" transform="translate(-32.8 84.74) rotate(-11.04)"/><circle class="cls-4" cx="433.86" cy="209.25" r="6.41"/><circle class="cls-8" cx="411.89" cy="195.95" r="35.38"/><polygon class="cls-9" points="416.3 411.84 350.77 408.38 361.46 366.12 366 348.21 408.2 350.55 414.25 396.32 416.3 411.84"/><path class="cls-10" d="M414.25,396.32c-14.48-1.77-36.45-8.28-52.79-30.2L366,348.21l42.2,2.34Z"/><path class="cls-11" d="M462.72,310.86a88.13,88.13,0,0,1-40.85,41,73.84,73.84,0,0,1-37.71,7.42,65.67,65.67,0,0,1-21.48-5.47,17.25,17.25,0,0,1-1.89-.83c-1.62-.75-3.19-1.62-4.72-2.5-20.26-11.74-34.36-33.86-37.38-59.7a91.75,91.75,0,0,1,2.11-32.63c6.19-25.22,22.69-45.52,43.63-55.66a68.56,68.56,0,0,1,35.25-6.84C431.92,197.94,454,215,464.3,239c.29.63.51,1.22.76,1.83a62.57,62.57,0,0,1,2.09,6h0a7.33,7.33,0,0,1,.23.86,12.21,12.21,0,0,1,.41,1.34c.32,1.06.56,2.09.81,3.2a.17.17,0,0,0,0,.09c.44,1.78.79,3.56,1.09,5.37a96.61,96.61,0,0,1,.82,25.26,80.52,80.52,0,0,1-7.84,27.9Z"/><path class="cls-9" d="M335.17,295.59c-12.26-13.6-25-12.33-27.6,6.35s17.14,30.73,30.53,23.13S335.17,295.59,335.17,295.59Z"/><path class="cls-10" d="M323.47,297.77c-6.85-.2-7.24,20.2,7.49,18.62,0,0-3.11-4.44-3.35-6.34-.21-1.61,1.23-6.33,1.23-6.33Z"/><path class="cls-9" d="M446.9,304.16c11.3-14.41,24.12-14,28,4.44s-15,31.83-28.86,25.18S446.9,304.16,446.9,304.16Z"/><path class="cls-10" d="M458.38,305.72c6.8-.89,9.22,19.37-5.59,19.27,0,0,2.34-5,2.65-6.92.45-2.73-1.8-5.9-1.8-5.9Z"/><path class="cls-9" d="M432.31,349.59v0c-.54.91-1.11,1.79-1.69,2.68v0c-8.12,12.13-20.23,20.51-38.16,20.87-24,.51-38.54-10-47-25.16a66.33,66.33,0,0,1-3.86-8.21c-14.91-37.89-1.53-94.49-1.53-94.49l104.52,8S453.12,314.66,432.31,349.59Z"/><path class="cls-11" d="M340.19,237.23s-.48,28.84,57.94,36l-5.78-14.3s15.39,28.48,69,22.25l-18-51.66-81.48-6.25Z"/><path class="cls-8" d="M437.29,270.53l-6.83.81c-2.28.09-4.58.23-6.88.26l-3.46-.12-1.73-.07c-.57-.05-1.15-.13-1.72-.19l-3.45-.41c-1.15-.21-2.28-.46-3.42-.69a47.19,47.19,0,0,1-13.14-5,36.83,36.83,0,0,1-5.85-4.13,14,14,0,0,1-1.34-1.22c-.43-.43-.89-.83-1.28-1.3s-.83-.91-1.21-1.41a16.7,16.7,0,0,1-1.15-1.62h0l3.61-1.7,4.16,10.3h0l1.21,3.37-3.31-.64-6.57-1.26c-1.1-.18-2.18-.53-3.26-.8l-3.24-.85c-1.09-.25-2.13-.68-3.19-1l-3.17-1.1c-1-.42-2.06-.9-3.08-1.34a26.3,26.3,0,0,1-3-1.47L363,257.32l-2.77-1.93a32.57,32.57,0,0,1-4.94-4.52l-.57-.62-.49-.68-1-1.35c-.32-.45-.57-1-.85-1.43a10.39,10.39,0,0,1-.77-1.48,15.37,15.37,0,0,1-1.61-6.39,15.09,15.09,0,0,0,2,6.16,9.36,9.36,0,0,0,.86,1.38c.31.44.58.91.93,1.33l1.06,1.23.52.61.6.55a30.87,30.87,0,0,0,5.07,4l2.78,1.64,2.93,1.35a25,25,0,0,0,3,1.19c1,.35,2,.73,3.05,1.06l3.13.83c1.05.25,2.07.59,3.15.75l3.18.59c1.07.17,2.11.44,3.2.52l6.44.74-2.1,2.73h0l-4.16-10.29,3.62-1.7h0c.17.32.47.81.75,1.22s.62.85.94,1.27.69.82,1,1.22a12.32,12.32,0,0,0,1.11,1.18,33.75,33.75,0,0,0,5.05,4.14,44.62,44.62,0,0,0,12.06,5.58c1.09.3,2.16.63,3.25.91l3.33.64c.55.11,1.11.23,1.66.32l1.69.18,3.39.37c2.26.14,4.54.16,6.82.24Z"/><path class="cls-12" d="M440.06,301.06a19,19,0,0,0-.45-3.13,21.69,21.69,0,0,0-1.22-3.81,22,22,0,0,0-6.61-8.66,21.83,21.83,0,0,0-27.08,0,22.12,22.12,0,0,0-6.61,8.66,20.3,20.3,0,0,0-1,2.78,9.86,9.86,0,0,0-5.9-2.5h-.09a11.71,11.71,0,0,0-6.9,2.12,19.15,19.15,0,0,0-.51-2.39,22,22,0,0,0-16.25-15.6,21.5,21.5,0,0,0-3.78-.51,21.9,21.9,0,0,0-22.2,16.11,21.18,21.18,0,0,0-.75,4.67,22.33,22.33,0,0,0,2.69,11.6,21.83,21.83,0,0,0,32.35,6.93,22.07,22.07,0,0,0,6-6.93,21.84,21.84,0,0,0,2.61-8.61c.2-.19.46-.45.78-.72,1.27-1.1,3.44-2.59,5.77-2.48l0,0a6.47,6.47,0,0,1,4.4,2.46,11,11,0,0,1,1,1.27,21.87,21.87,0,0,0,42.32,8.06,20.17,20.17,0,0,0,1.11-4.1,21.32,21.32,0,0,0,.3-2.56A21.57,21.57,0,0,0,440.06,301.06Zm-63.23,9.33a17.76,17.76,0,0,1-15.1,7.15,18.53,18.53,0,0,1-2-.22A17.78,17.78,0,0,1,345,301.06a17.83,17.83,0,0,1,0-2.07,17.39,17.39,0,0,1,.95-4.87,17.87,17.87,0,0,1,6.48-8.66,17.67,17.67,0,0,1,26.95,8.66,17.44,17.44,0,0,1,.95,6.63c0,.11,0,.2,0,.31A17.67,17.67,0,0,1,376.83,310.39Zm51.22,6.93a17.43,17.43,0,0,1-10.7,3,17.66,17.66,0,0,1-15-9.91,17.4,17.4,0,0,1-1.78-8.63l0-.7a17.5,17.5,0,0,1,2.14-6.94A17.8,17.8,0,0,1,414,285.46a17.45,17.45,0,0,1,5.07-.48,17.86,17.86,0,0,1,3.3.48,17.66,17.66,0,0,1,11.31,8.66,17.48,17.48,0,0,1,2.13,6.94,15.63,15.63,0,0,1,0,2.47,17.45,17.45,0,0,1-1.78,6.86A17.77,17.77,0,0,1,428.05,317.32Z"/><path class="cls-13" d="M409.16,334.76a16,16,0,0,1-1.87,4.4c-.33.51-.69,1.06-1.11,1.61-.18.23-.4.5-.64.75a4.58,4.58,0,0,1-.38.4c-2.85,3.12-7.53,6-15.38,5.8l0,0-.57-.06,0-.05c-7.32-.48-11.72-3.46-14.31-6.63a.86.86,0,0,0-.07-.1c-.22-.25-.42-.54-.61-.79v0a18,18,0,0,1-1.57-2.63,17.72,17.72,0,0,1-1.46-4.56Z"/><path class="cls-14" d="M363.12,305.73h0a4.85,4.85,0,0,1-4.84-4.83v-5.22a4.85,4.85,0,0,1,4.84-4.83h0a4.84,4.84,0,0,1,4.83,4.83v5.22A4.84,4.84,0,0,1,363.12,305.73Z"/><path class="cls-14" d="M416.17,307.48h0a4.84,4.84,0,0,1-4.83-4.84v-5.21a4.85,4.85,0,0,1,4.83-4.84h0a4.85,4.85,0,0,1,4.84,4.84v5.21A4.84,4.84,0,0,1,416.17,307.48Z"/><path class="cls-10" d="M396.86,355.7c.15,1.72-2.92,3.37-6.83,3.69s-7.21-.81-7.35-2.53,2.92-3.37,6.84-3.69S396.72,354,396.86,355.7Z"/><path class="cls-14" d="M366.61,273.75c-16.46,4.29-26.78,1.57-12.83-3.31S375.15,271.52,366.61,273.75Z"/><path class="cls-15" d="M397.23,316.37l-7.62-13.57-9,12.7c-2.25,3.15,3,3.73,3,3.73s-.26,3.11,4.92,3.67c5.2,0,5.27-3.14,5.27-3.14S399.13,319.74,397.23,316.37Z"/><path class="cls-16" d="M573.23,580c0,.6,0,1.21,0,1.81,0,.26,0,.51,0,.76,0,.67-.07,1.34-.14,2,0,.47-.08.94-.14,1.39v0c0,.31-.08.62-.13.92s0,.37-.08.54c-.06.39-.11.77-.18,1.12s-.1.54-.16.8-.14.69-.22,1-.22.92-.34,1.37a.67.67,0,0,1,0,.19,5.61,5.61,0,0,1-.19.67c-.14.5-.28,1-.45,1.45s-.4,1.19-.62,1.75-.46,1.12-.7,1.67-.5,1.09-.78,1.6-.47.91-.72,1.35-.66,1.13-1,1.68-.64,1-1,1.42-.67.92-1,1.37-.63.78-1,1.16a40.07,40.07,0,0,1-7.65,6.78,48.55,48.55,0,0,1-4.3,2.64l-1.5.78c-.5.25-1,.48-1.51.73-1,.49-2.06.94-3.12,1.34l-1.59.61q-1.7.66-3.42,1.17c-.48.16-1,.3-1.44.42-2,.61-4.08,1.13-6.13,1.55h0c-1.32.29-2.63.54-4,.76a.27.27,0,0,0-.13,0c-1.17.2-2.32.37-3.46.53-.87.11-1.73.22-2.57.29-1.25.16-2.47.27-3.67.36l-.22,0-2.35.17c-1.42.08-2.79.14-4.12.17l-1.4,0a124.35,124.35,0,0,1-15.26-.57c5.68,12,7.32,20.37,7,26.11,0,.28,0,.56,0,.83s-.07.78-.12,1.15l-.05.33c0,.28-.09.56-.14.82s-.15.74-.25,1.08a7.72,7.72,0,0,1-.28,1,13.11,13.11,0,0,1-1.09,2.49,6.78,6.78,0,0,1-.55.89,10.8,10.8,0,0,1-1.34,1.63c-.17.17-.36.34-.53.48a5.48,5.48,0,0,1-.64.51,3.38,3.38,0,0,1-.36.25,4.17,4.17,0,0,1-.7.42l-.29.16-.05,0c-.25.11-.42.19-.52.22a.15.15,0,0,0-.09,0c12.18,27.19,4.26,36,4.26,36q1.38,5.41,2.62,11.5c.12.58.23,1.15.36,1.75,1.29,6.39,2.49,13.29,3.62,20.54.18,1.19.37,2.39.54,3.59.07.42.13.84.19,1.26.2,1.31.39,2.64.58,4,.7,5,1.37,10.09,2,15.3.14,1.08.27,2.15.39,3.25.18,1.42.35,2.85.5,4.29.21,1.68.39,3.38.58,5.08.33,3,.64,6,.95,9.06.13,1.21.24,2.41.36,3.61.16,1.48.3,3,.44,4.46.28,3,.54,6,.81,8.92.17,1.78.33,3.54.47,5.31q.35,4,.67,8c.48,5.9.92,11.73,1.32,17.45l0,.33,0,.72c.09,1.12.17,2.25.25,3.37.09,1.37.18,2.71.26,4.05.06.71.11,1.39.14,2.1.08,1,.14,1.91.2,2.88s.14,2.22.21,3.31q.25,4.07.5,8c.2,3.29.37,6.49.54,9.59.11,1.87.2,3.71.3,5.51l.09,1.77c.44,8.29.8,15.77,1.06,22.14,0,.9.08,1.79.11,2.67.08,1.73.14,3.37.2,4.89.08,1.92.15,3.67.21,5.26,0,1.27.09,2.44.12,3.48v0c0,.78.06,1.49.08,2.13a1.23,1.23,0,0,1,0,.27c0,.33,0,.64,0,.92v0c0,.47,0,.89,0,1.25,0,.2,0,.4,0,.59a3.23,3.23,0,0,1,0,.44c0,.25,0,.45,0,.59s0,.27,0,.27H489.17L288,911.71c0-.08,0-.14,0-.22a.58.58,0,0,0,0-.14l-.33-1.59c0-.14-.06-.3-.1-.47-.43-2.11-1.09-5.4-1.93-9.88-.08-.34-.14-.68-.2-1-.42-2.15-.88-4.57-1.36-7.24l-.34-1.81q-.57-3.09-1.19-6.61c-.09-.53-.19-1.06-.29-1.61-.44-2.48-.91-5.1-1.39-7.89-.17-1-.35-2.06-.53-3.12-.07-.36-.13-.7-.19-1.06-.16-.94-.31-1.89-.48-2.86q-1.69-10-3.67-22.21c-.23-1.45-.47-2.92-.7-4.42q-1.05-6.62-2.17-13.85h0c-.37-2.47-.76-5-1.15-7.55q-.5-3.21-1-6.54c-.32-2.21-.67-4.48-1-6.78-9.81-66.29-3-91-1.55-95.33l.27-.69c-3.81-3.51-2.22-11.1.62-18.33h0a110.82,110.82,0,0,1,8.58-16.66c-.45-.42-.89-.84-1.31-1.27l-.18-.18-.58-.63-.42-.46a30.34,30.34,0,0,1-2.23-2.8,4.15,4.15,0,0,1-.3-.43c-.19-.27-.36-.52-.51-.78s-.25-.39-.36-.58-.17-.3-.27-.45c-.22-.38-.4-.75-.61-1.13A.66.66,0,0,0,271,665c-.16-.31-.31-.61-.44-.92a2.24,2.24,0,0,0-.11-.22s0-.05,0-.08a.22.22,0,0,1-.05-.08c-.09-.23-.2-.46-.28-.7s-.15-.37-.22-.56,0-.08,0-.12c-.11-.33-.22-.64-.32-1l-.31-1.06-.09-.4c-.08-.3-.14-.59-.19-.88s-.14-.76-.2-1.13-.09-.75-.14-1.13a18.94,18.94,0,0,1-.06-3.18v-.3c0-.37.06-.73.09-1.07,0,0,0-.1,0-.14q.06-.57.15-1.11v0c.06-.37.13-.73.2-1.07s.16-.72.24-1.06c.17-.67.36-1.3.56-1.88.09-.29.2-.56.3-.82.2-.53.4-1,.57-1.41s.36-.76.52-1c.29-.56.5-.88.5-.88-1.5-.1-3.12-.26-4.82-.48l-1.11-.14-.58-.09-.39-.07h-.08l-.46-.07-1.36-.24c-.45-.09-.91-.17-1.37-.28-1-.22-2.12-.47-3.2-.76l-1.11-.31c-.95-.29-1.9-.6-2.85-1-.5-.18-1-.37-1.5-.59l-1.08-.45c-.67-.3-1.32-.63-2-.95-.47-.25-.94-.5-1.41-.77s-1-.56-1.46-.87-1-.61-1.42-.92-1-.7-1.49-1.08-.95-.75-1.42-1.14c-.28-.21-.54-.45-.79-.68-.47-.41-.94-.84-1.39-1.3s-.9-.9-1.34-1.39c-.22-.21-.42-.45-.64-.7s-.42-.48-.62-.71c-.41-.5-.82-1-1.22-1.55-.2-.26-.39-.53-.59-.81-.41-.55-.8-1.11-1.16-1.68-.19-.29-.36-.55-.53-.83-.39-.63-.76-1.27-1.12-1.92-.1-.16-.19-.33-.27-.48-.28-.49-.53-1-.78-1.5-.17-.33-.34-.69-.5-1s-.32-.7-.48-1.06c-.33-.72-.64-1.45-.94-2.22-.14-.37-.28-.76-.4-1.18s-.22-.78-.31-1.2a35.63,35.63,0,0,1-.66-4.28c-.06-.61-.11-1.26-.15-1.92l0-.75a5.17,5.17,0,0,1,0-.57c-.08-1.67-.1-3.5-.08-5.45,0-.67,0-1.35,0-2s0-1.09.05-1.65a2.53,2.53,0,0,1,0-.28c0-.47,0-.94.07-1.44s0-.87.06-1.31.05-.86.08-1.29c.11-1.81.25-3.7.42-5.65.06-.73.12-1.48.2-2.23.08-.91.17-1.84.28-2.78s.2-1.89.31-2.87c.1-.81.19-1.62.28-2.45.14-1.15.3-2.32.46-3.49s.29-2.25.45-3.39c.81-5.69,1.78-11.68,2.88-17.87q1-5.64,2.19-11.47c.29-1.42.58-2.87.89-4.32.15-.76.31-1.53.48-2.29s.31-1.5.48-2.26c.13-.55.24-1.08.36-1.61.25-1.16.52-2.33.78-3.48.35-1.56.71-3.1,1.08-4.66s.73-3.11,1.11-4.67.73-3,1.1-4.43q.82-3.22,1.67-6.46c.14-.56.3-1.1.44-1.63.58-2.17,1.17-4.34,1.78-6.48,1.36-4.83,2.78-9.61,4.24-14.29.42-1.32.84-2.65,1.28-3.94a1.8,1.8,0,0,1,.06-.22c.46-1.39.91-2.76,1.38-4.12.18-.58.39-1.15.57-1.72l.61-1.74c.39-1.13.78-2.22,1.17-3.33,1.42-4,2.89-7.83,4.39-11.52.81-2,1.62-3.93,2.44-5.82.19-.44.38-.88.57-1.3,1-2.32,2.05-4.57,3.1-6.72.14-.28.28-.55.41-.83.29-.61.6-1.2.9-1.79q1.13-2.22,2.28-4.31c1.6-2.91,3.23-5.6,4.86-8,.16-.22.3-.44.44-.64h0c.51-.75,1-1.48,1.56-2.18a49.72,49.72,0,0,1,3.93-4.74,3.73,3.73,0,0,1,.26-.3l.61-.63a28.62,28.62,0,0,1,5.49-4.39c.36-.22.7-.41,1.06-.6.78-.4,1.58-.79,2.39-1.17l.7-.34.27-.12,1-.44.33-.14.05,0,.84-.36a3,3,0,0,1,.36-.16s0,0,0,0c1.7-.73,3.43-1.43,5.22-2.09h0a1.78,1.78,0,0,1,.29-.12c1.14-.42,2.3-.83,3.47-1.22.64-.22,1.27-.44,1.91-.64.92-.3,1.85-.58,2.78-.86s1.86-.56,2.81-.82,1.89-.53,2.84-.78c.47-.14.95-.27,1.42-.39s1-.25,1.45-.36q1.61-.4,3.24-.78c.86-.21,1.7-.41,2.56-.6,3.4-.78,6.85-1.46,10.25-2.09l.19,0,.48-.08c1.4-.26,2.81-.49,4.2-.73s2.51-.4,3.74-.61H341c4.37-.67,8.61-1.23,12.67-1.7l2.42-.28,2.62-.28,4-.41a.93.93,0,0,1,.23,0l2.17-.2c2.12-.19,4.15-.36,6-.5h.11l5.39-.37c.39,0,.77,0,1.14-.06l1.2-.07.69,0c4.76-.24,7.57-.3,7.57-.3s.9,0,2.8-.12a3.91,3.91,0,0,0,.46,0l1-.06c.73,0,1.55-.11,2.47-.19,1.76-.14,3.9-.34,6.42-.62h0c1.89-.2,4-.45,6.32-.73l3.9-.52,2.95-.4h0l1.67-.25,2.16-.31,2.46-.38c.53-.08,1.06-.15,1.61-.25,1-.15,2.1-.33,3.2-.51l2.68-.44c1.48-.25,3-.5,4.55-.78.94-.14,1.88-.31,2.84-.48a.42.42,0,0,1,.13,0l.23-.05c.25,0,.49-.08.73-.13l2.58-.46c7.24-1.31,15.3-2.91,24.24-4.78a35.52,35.52,0,0,1,7.25-.76c.6,0,1.19,0,1.78.06H472l.25,0c.45,0,.92.07,1.37.14a20.53,20.53,0,0,1,2.19.29l.79.16a25.92,25.92,0,0,1,2.95.73l.83.25c.54.16,1.07.35,1.62.55s1,.37,1.5.58l.12,0,.72.33a.76.76,0,0,1,.16.06c.31.13.6.27.92.42a.88.88,0,0,1,.12.07l1,.48a38.77,38.77,0,0,1,3.55,2c.44.25.88.53,1.3.82s1,.69,1.53,1.06c.68.49,1.36,1,2,1.55.24.19.49.37.72.56l.58.48,1.18,1c.53.45,1.06.93,1.59,1.43,0,0,0,0,.05.05.86.78,1.7,1.59,2.53,2.45.39.39.78.79,1.15,1.2l.22.23c.37.39.75.8,1.12,1.22,1.05,1.12,2.06,2.31,3.06,3.53s2.25,2.79,3.35,4.25c.55.72,1.08,1.47,1.61,2.2a1.81,1.81,0,0,0,.19.25,1.43,1.43,0,0,0,.15.22c1.95,2.75,3.86,5.63,5.73,8.68,1.39,2.23,2.74,4.53,4.07,6.92l.14.25c.56,1,1.12,2,1.67,3,.67,1.24,1.34,2.51,2,3.8v0s0,.05.05.08c.26.5.51,1,.78,1.49.15.32.33.64.48,1,1,1.89,1.91,3.84,2.84,5.79l.08.17c1,2.12,2,4.29,3,6.47.82,1.8,1.61,3.61,2.39,5.43,2.89,6.71,5.65,13.65,8.28,20.73.63,1.63,1.22,3.28,1.81,4.92.41,1.09.8,2.2,1.19,3.29.78,2.2,1.56,4.41,2.32,6.63,1.14,3.31,2.27,6.63,3.34,9.95.72,2.25,1.45,4.49,2.15,6.74.36,1.11.71,2.23,1.07,3.34.68,2.21,1.37,4.43,2,6.64,1.68,5.54,3.31,11,4.83,16.41.32,1.08.63,2.16.92,3.23,1.46,5.1,2.84,10.13,4.17,15,.31,1.16.62,2.31.94,3.45q.9,3.42,1.79,6.72c.28,1.08.55,2.13.78,3.15.47,2,.84,3.95,1.12,5.82.11.63.19,1.25.27,1.86.14,1,.25,2,.31,3C573.17,576.62,573.23,578.35,573.23,580Z"/><path class="cls-17" d="M496.48,662.28C463.83,681.09,302.61,705,269.26,690.47v0a110.16,110.16,0,0,1,8.58-16.67,29.23,29.23,0,0,1-8-11.5Z"/><path class="cls-18" d="M521.6,912.21H489.17L288,911.71c0-.08,0-.14,0-.22a.58.58,0,0,0,0-.14l-.33-1.59c0-.14-.06-.3-.1-.47-.43-2.11-1.09-5.4-1.93-9.88-.08-.34-.14-.68-.2-1-.42-2.15-.88-4.57-1.36-7.24l-.34-1.81q-.57-3.09-1.19-6.61c-.09-.53-.19-1.06-.29-1.61-.44-2.48-.91-5.1-1.39-7.89-.17-1-.35-2.06-.53-3.12-.07-.36-.13-.7-.19-1.06-.16-.94-.31-1.89-.48-2.86q-1.69-10-3.67-22.21c-.23-1.45-.47-2.92-.7-4.42q-1.05-6.62-2.17-13.85h0c-.37-2.47-.76-5-1.15-7.55q-.5-3.21-1-6.54c-.32-2.21-.67-4.48-1-6.78-9.81-66.29-3-91-1.55-95.33l.27-.69c19.08,13.26,37.31,18.28,53.58,18.78,39.76,1.19,58.58-26.89,58.58-26.89S416,741,471.89,715.86c3.21-1.45,6.49-3.11,9.82-5a169.94,169.94,0,0,0,19-12.62q1.38,5.41,2.62,11.5c.12.58.23,1.15.36,1.75,1.29,6.39,2.49,13.29,3.62,20.54.18,1.19.37,2.39.54,3.59.07.42.13.84.19,1.26.2,1.31.39,2.64.58,4,.7,5,1.37,10.09,2,15.3.14,1.08.27,2.15.39,3.25.18,1.42.35,2.85.5,4.29.21,1.68.39,3.38.58,5.08.33,3,.64,6,.95,9.06.13,1.21.24,2.41.36,3.61.16,1.48.3,3,.44,4.46l.42,4.46c.14,1.5.26,3,.39,4.46.17,1.78.33,3.54.47,5.31q.35,4,.67,8c.48,5.9.92,11.73,1.32,17.45l0,.33c.1,1.37.19,2.75.29,4.09s.18,2.71.26,4.05c.06.71.11,1.39.14,2.1.08,1,.14,1.91.2,2.88s.14,2.22.21,3.31c.18,2.73.34,5.4.5,8,.2,3.29.37,6.49.54,9.59.11,1.87.2,3.71.3,5.51l.09,1.77c.44,8.29.8,15.77,1.06,22.14,0,.9.08,1.79.11,2.67.08,1.73.14,3.37.2,4.89.08,1.92.15,3.67.21,5.26,0,1.27.09,2.44.12,3.48v0c0,.78.06,1.49.08,2.13a1.23,1.23,0,0,1,0,.27c0,.33,0,.64,0,.92v0c0,.45,0,.87,0,1.25,0,.2,0,.4,0,.59a3.23,3.23,0,0,1,0,.44c0,.25,0,.45,0,.59S521.6,912.21,521.6,912.21Z"/><path class="cls-19" d="M539.78,620.54c-20.68,6-43.3,3.31-43.3,3.31,13.93,29.53,3.47,36.81.65,38.16l-.06,0-.51.21a.19.19,0,0,0-.08,0c-14.39,5.9-34.56,11.19-57.3,15.16-53.76,9.39-121.82,11.36-161.34-3.66-16.44-15.22-6.16-31.07-6.16-31.07-2.11-.16-4.47-.39-7-.78a53.77,53.77,0,0,1-10.35-2.61c-9.13-3.38-18.46-10.22-24.14-24.64-3.4-8.61-1.52-34,3.9-64.1,9.86-54.92,31.47-125.33,54-136.91a100.3,100.3,0,0,1,11.46-5A176.41,176.41,0,0,1,322,402.25c3.48-.77,7-1.48,10.44-2.11,2.82-.53,5.65-1,8.43-1.42l.09,0a392.82,392.82,0,0,1,46.28-4.23s15.26-.19,51.21-6.75c7.23-1.32,15.29-2.9,24.24-4.78,47.67-10,80.43,80.69,100.9,153,2.48,8.73,4.77,17.18,6.89,25.15C580.53,598.72,561.2,614.31,539.78,620.54Z"/><path class="cls-16" d="M435,388.35c0-.06-3.37-14.47-13.89-11.9s-35.78,17.42-35.78,17.42-29.43-9-38-8.39-10.14,13.87-10.14,13.87h0l-4.68.79c21.74,53.19,94.51,61.15,106-12.42Z"/><polyline class="cls-20" points="375.58 425.65 386.54 399.69 405.5 422.16"/><path class="cls-21" d="M521.6,912.21H489.17L288,911.71c0-.08,0-.14,0-.22a.58.58,0,0,0,0-.14l-.33-1.59c0-.14-.06-.3-.1-.47-.43-2.11-1.09-5.4-1.93-9.88-.08-.34-.14-.68-.2-1-.42-2.15-.88-4.57-1.36-7.24l-.34-1.81q-.57-3.09-1.19-6.61c-.09-.53-.19-1.06-.29-1.61-.44-2.48-.91-5.1-1.39-7.89-.17-1-.35-2.06-.53-3.12-.07-.36-.13-.7-.19-1.06-.16-.94-.31-1.89-.48-2.86q-1.69-10-3.67-22.21c-.23-1.45-.47-2.92-.7-4.42q-1.05-6.62-2.17-13.85h0c-.37-2.47-.76-5-1.15-7.55q-.5-3.21-1-6.54c-.32-2.21-.67-4.48-1-6.78-9.81-66.29-3-91-1.55-95.33l.27-.69c19.08,13.26,37.31,18.28,53.58,18.78C305.13,827.58,427.8,881.9,488.7,902.44c13.75,4.65,24.34,7.57,29.47,8.91C520.4,911.92,521.6,912.21,521.6,912.21Z"/><path class="cls-22" d="M520.49,890.73c-2.58-35.9-11.09-111-38.78-179.89a168.4,168.4,0,0,0,19-12.61c8.09,31.86,13.24,83,16.39,127.39l0,.32Z"/><path class="cls-23" d="M341.57,436.87s48.38,49.57,96.92-5.22"/><path class="cls-23" d="M309.31,522.36l-6,33.19s9.08-2.68,12.07,2.43,0,11.94,0,11.94"/><path class="cls-23" d="M400.88,631.76s-43.36,17.18-129.2,11"/><path class="cls-9" d="M301.83,534.86c-.62,7.91,7,7.22,7,7.22-6.46,8.77,3.64,11.83,3.64,11.83-2,9.62,10.14,9.6,10.14,9.6-3.4,14.3,38.24,9.26,38.24,9.26l22.3,7c1.51-11.47,5.94-24.34,9.69-33.73l-6.57-1.58c-26.82-6.57-40.86-29-40.86-29l-4.92-5.75a3.23,3.23,0,0,0-5.65,2.49,134.77,134.77,0,0,0,3.34,16.72C330.63,530.87,302.42,527,301.83,534.86Z"/><path class="cls-9" d="M488.87,623.35c.38,7.57-8.16,6.9-8.16,6.9-1.61,9.7-12.93,5.27-12.93,5.27-2,14.56-39-5.27-39-5.27l-23.3-1.62c2.22-9,3-19.5,3.19-28.53C423.31,609,449.05,620.2,488.87,623.35Z"/><path class="cls-23" d="M408.67,600.1s-23.44-7-25.56-20.38"/><path class="cls-24" d="M439.18,677.44c-53.76,9.39-121.82,11.36-161.34-3.66-16.44-15.22-6.16-31.07-6.16-31.07-2.11-.16-4.47-.39-7-.78l52,2.06,47.18-3.71C363.61,673.76,436.86,677.33,439.18,677.44Z"/><path class="cls-24" d="M410.71,536.78c-24.48,7.63,36.52,41.72,70.79,42.94s47.81-7.62,8.05-30.57S410.71,536.78,410.71,536.78Z"/><rect class="cls-25" x="317.5" y="375.4" width="27.2" height="183.2" transform="translate(-223.99 327.03) rotate(-40.51)"/><rect class="cls-13" x="282.66" y="399.12" width="8.31" height="3.04" transform="translate(-191.5 282.35) rotate(-40.51)"/><rect class="cls-13" x="289.53" y="407.17" width="8.31" height="3.04" transform="translate(-195.08 288.75) rotate(-40.51)"/><rect class="cls-13" x="296.41" y="415.22" width="8.31" height="3.04" transform="translate(-198.66 295.15) rotate(-40.51)"/><rect class="cls-13" x="303.29" y="423.27" width="8.31" height="3.04" transform="translate(-202.24 301.56) rotate(-40.51)"/><rect class="cls-13" x="310.17" y="431.32" width="8.31" height="3.04" transform="translate(-205.82 307.95) rotate(-40.51)"/><rect class="cls-13" x="317.05" y="439.37" width="8.31" height="3.04" transform="translate(-209.4 314.35) rotate(-40.51)"/><rect class="cls-13" x="323.93" y="447.43" width="8.31" height="3.04" transform="translate(-212.98 320.75) rotate(-40.51)"/><rect class="cls-13" x="330.81" y="455.48" width="8.31" height="3.04" transform="translate(-216.56 327.14) rotate(-40.51)"/><rect class="cls-13" x="337.69" y="463.53" width="8.31" height="3.04" transform="translate(-220.15 333.54) rotate(-40.51)"/><rect class="cls-13" x="344.57" y="471.58" width="8.31" height="3.04" transform="translate(-223.73 339.94) rotate(-40.51)"/><rect class="cls-13" x="351.45" y="479.63" width="8.31" height="3.04" transform="translate(-227.31 346.34) rotate(-40.51)"/><rect class="cls-13" x="358.33" y="487.68" width="8.31" height="3.04" transform="translate(-230.89 352.74) rotate(-40.51)"/><rect class="cls-13" x="365.21" y="495.73" width="8.31" height="3.04" transform="translate(-234.47 359.14) rotate(-40.51)"/><rect class="cls-13" x="372.09" y="503.78" width="8.31" height="3.04" transform="translate(-238.05 365.54) rotate(-40.51)"/><rect class="cls-13" x="378.96" y="511.84" width="8.31" height="3.04" transform="translate(-241.63 371.94) rotate(-40.51)"/><rect class="cls-13" x="385.84" y="519.89" width="8.31" height="3.04" transform="translate(-245.21 378.33) rotate(-40.51)"/><path class="cls-13" d="M424.06,534.78c-7.59.21-14.77,1.49-20.79,4.31-.2.1-.4.21-.61.3l-.61.31a28.77,28.77,0,0,0-8.9,7l-.35-.81-1-.23-5.57-1.35A61.29,61.29,0,0,1,377,541.3l-.61-.26q-.3-.12-.6-.27a66.37,66.37,0,0,1-10.07-5.52,74,74,0,0,1-20.3-19.92l-4.91-5.75a3.23,3.23,0,0,0-5.66,2.49,134.22,134.22,0,0,0,3.35,16.73,25.94,25.94,0,0,1-5.06.59l-.71,0-18.21-38.55.58-.28L378,460.69l9-4.26,2.91-1.38.72-.34.7-.32,6.06-2.87L413.24,485,437,535.29A97.27,97.27,0,0,0,424.06,534.78Z"/><path class="cls-14" d="M424.06,534.78c-7.59.21-14.77,1.49-20.79,4.31-.2.1-.4.21-.61.3l-.61.31a28.77,28.77,0,0,0-8.9,7l-.35-.81-1-.23-5.57-1.35A61.29,61.29,0,0,1,377,541.3l-.61-.26q-.3-.12-.6-.27a66.37,66.37,0,0,1-10.07-5.52,74,74,0,0,1-20.3-19.92l-4.91-5.75a3.23,3.23,0,0,0-5.66,2.49,134.22,134.22,0,0,0,3.35,16.73,25.94,25.94,0,0,1-5.06.59l-.71,0-.69,0c-3.52.1-7.77,0-11.95.11l-16-33.77,9.81-4.64.58-.27.58-.28L378,460.69l9-4.26,2,4.21.49,1,.47,1,11.21,23.71h0Z"/><path class="cls-26" d="M333.09,529.39l-.71,0-.69,0-18.1-38.3.58-.27.58-.28Z"/><path class="cls-24" d="M260.42,595.62c-8.49-3.15-17.16-9.5-22.45-22.92-3.16-8-1.41-31.65,3.63-59.61,26.11,2.51,7.56,32.41,23.18,44.37C280.65,569.6,278.28,588.82,260.42,595.62Z"/><line class="cls-27" x1="308.79" y1="542.08" x2="319.05" y2="541.3"/><line class="cls-27" x1="312.43" y1="553.91" x2="321.25" y2="553.02"/><line class="cls-27" x1="322.57" y1="563.51" x2="328.52" y2="563.51"/><line class="cls-27" x1="480.71" y1="630.25" x2="475.02" y2="629.23"/><line class="cls-27" x1="467.78" y1="635.52" x2="461.97" y2="634.34"/><path class="cls-23" d="M472.59,427.87s-13.1,14,3.5,48.92,38.43,65.51,38.43,65.51"/><rect x="436.63" y="193.95" width="16.22" height="5.08" transform="translate(-29.39 88.76) rotate(-11.04)"/><circle class="cls-25" cx="456.39" cy="193.57" r="6.41"/></g></svg>